<?xml version="1.0" encoding="utf-8"?>
<!-- Generator: Adobe Illustrator 24.0.1, SVG Export Plug-In . SVG Version: 6.00 Build 0)  -->
<svg version="1.1" xmlns="http://www.w3.org/2000/svg" xmlns:xlink="http://www.w3.org/1999/xlink" x="0px" y="0px"
	 viewBox="0 0 528.13 87.33" style="enable-background:new 0 0 528.13 87.33;" xml:space="preserve">
<style type="text/css">
	.st0{fill:#FFD067;}
	.st1{fill:#FFFFFF;}
	.st2{fill:#015E6E;}
	.st3{fill:#333333;}
</style>
<g id="All_BG">
	<g id="Layer_1">
	</g>
</g>
<g id="Black_bg__x28_logo_x29_">
</g>
<g id="White_bg_x28_Logo_x29_">
</g>
<g id="Teal_BG__x28_logo_x29_">
</g>
<g id="Yellow_BG__x28_Logo_x29_">
</g>
<g id="Main_Logo">
	<g>
		<path class="st2" d="M0.15,78.21V21.15c0-2.55,2.07-4.62,4.62-4.62h8.97c9.81,0,16.93,0.79,21.35,2.36
			c6.36,2.23,11.33,6.09,14.91,11.59c3.58,5.5,5.37,12.05,5.37,19.66c0,6.57-1.42,12.35-4.26,17.34
			c-2.84,4.99-6.52,8.68-11.06,11.06c-4.53,2.38-10.89,3.57-19.06,3.57H4.05C1.89,82.1,0.15,80.36,0.15,78.21z M6.43,75.91h7.58
			c9.06,0,15.35-0.56,18.86-1.69c4.93-1.6,8.81-4.49,11.64-8.66c2.82-4.17,4.24-9.27,4.24-15.3c0-6.32-1.53-11.73-4.59-16.21
			c-3.06-4.48-7.33-7.56-12.79-9.22c-4.1-1.25-10.86-1.87-20.28-1.87h0c-2.56,0-4.64,2.08-4.64,4.64V75.91z"/>
		<path class="st2" d="M73,16.53h29.31c1.88,0,3.41,1.53,3.41,3.41v2.16c0,0.47-0.38,0.85-0.85,0.85H75.54
			c-0.47,0-0.85,0.38-0.85,0.85v18.85c0,0.47,0.38,0.85,0.85,0.85h26.48c1.89,0,3.43,1.53,3.43,3.43v1.76
			c0,0.68-0.55,1.24-1.24,1.24H75.54c-0.47,0-0.85,0.38-0.85,0.85v24.06c0,0.47,0.38,0.85,0.85,0.85h28.21c0.94,0,1.7,0.76,1.7,1.7
			v3.87c0,0.47-0.38,0.85-0.85,0.85H72.84c-2.6,0-4.7-2.11-4.7-4.7V21.39C68.13,18.7,70.31,16.53,73,16.53z"/>
		<path class="st2" d="M113.04,68.22L113.04,68.22c1.51-0.9,3.45-0.44,4.41,1.03c3.54,5.41,7.53,8.12,11.99,8.12
			c2.2,0,4.26-0.51,6.2-1.54c1.93-1.03,3.4-2.4,4.41-4.12c1.01-1.72,1.52-3.55,1.52-5.48c0-2.2-0.74-4.35-2.23-6.46
			c-2.05-2.91-5.8-6.42-11.23-10.52c-5.47-4.13-8.87-7.12-10.21-8.96c-2.32-3.09-3.48-6.43-3.48-10.03c0-2.85,0.68-5.45,2.05-7.8
			c1.37-2.35,3.29-4.2,5.77-5.55c2.48-1.35,5.18-2.03,8.09-2.03c3.09,0,5.98,0.77,8.67,2.3c2.06,1.17,4.21,3.1,6.45,5.78
			c1.19,1.42,0.93,3.55-0.55,4.67l-0.19,0.15c-1.37,1.04-3.32,0.84-4.43-0.47c-1.66-1.95-3.13-3.31-4.4-4.07
			c-1.74-1.04-3.63-1.56-5.68-1.56c-2.65,0-4.81,0.8-6.49,2.41c-1.68,1.6-2.52,3.58-2.52,5.93c0,1.43,0.3,2.81,0.89,4.15
			c0.59,1.34,1.68,2.79,3.25,4.37c0.86,0.83,3.68,3.02,8.47,6.55c5.68,4.19,9.57,7.92,11.68,11.19c2.11,3.27,3.17,6.55,3.17,9.85
			c0,4.76-1.81,8.89-5.42,12.39c-3.61,3.51-8,5.26-13.17,5.26c-3.98,0-7.59-1.06-10.83-3.19c-2.58-1.69-5-4.3-7.26-7.81
			C110.97,71.22,111.47,69.16,113.04,68.22z"/>
		<path class="st2" d="M164.85,16.53L164.85,16.53c1.81,0,3.28,1.47,3.28,3.28v59.02c0,1.81-1.47,3.28-3.28,3.28l0,0
			c-1.81,0-3.28-1.47-3.28-3.28V19.8C161.58,17.99,163.04,16.53,164.85,16.53z"/>
		<path class="st2" d="M243.92,29.9l-0.44,0.42c-1.17,1.11-3,1.17-4.23,0.11c-3.08-2.66-6.39-4.75-9.93-6.26
			c-4.35-1.86-8.6-2.79-12.73-2.79c-5.14,0-10.04,1.26-14.69,3.79c-4.65,2.53-8.26,5.95-10.81,10.28
			c-2.56,4.32-3.83,8.89-3.83,13.71c0,4.93,1.32,9.62,3.97,14.07c2.64,4.44,6.3,7.94,10.97,10.48c4.67,2.54,9.78,3.81,15.34,3.81
			c6.75,0,12.45-1.9,17.12-5.71c3.57-2.91,6.03-6.48,7.37-10.71c0.64-2.03-0.91-4.09-3.03-4.09h-13.79c-1.75,0-3.17-1.42-3.17-3.17
			v0c0-1.75,1.42-3.17,3.17-3.17h21.8c1.85,0,3.3,1.58,3.16,3.43c-0.66,8.54-3.62,15.44-8.89,20.71
			c-5.96,5.96-13.93,8.94-23.92,8.94c-12.13,0-21.73-4.13-28.8-12.39c-5.44-6.36-8.16-13.72-8.16-22.07
			c0-6.21,1.56-11.99,4.68-17.34s7.4-9.53,12.84-12.55c5.44-3.02,11.59-4.52,18.46-4.52c5.56,0,10.79,1,15.69,3.01
			c3.98,1.63,7.88,4.06,11.71,7.28C245.21,26.39,245.29,28.6,243.92,29.9z"/>
		<path class="st2" d="M262.82,81.08V17.51c0-0.54,0.44-0.98,0.98-0.98h0c0.28,0,0.55,0.12,0.74,0.34l41.55,47.86
			c0.62,0.72,1.8,0.28,1.8-0.67v-46.5c0-0.57,0.46-1.03,1.03-1.03h4.41c0.57,0,1.03,0.46,1.03,1.03v63.53
			c0,0.57-0.46,1.03-1.03,1.03l0,0c-0.28,0-0.55-0.12-0.74-0.34l-41.2-47.26c-0.62-0.71-1.8-0.27-1.8,0.67v45.89
			c0,0.57-0.46,1.03-1.03,1.03h-4.73C263.28,82.1,262.82,81.65,262.82,81.08z"/>
		<path class="st2" d="M332.65,16.53L332.65,16.53c1.81,0,3.28,1.47,3.28,3.28v59.02c0,1.81-1.47,3.28-3.28,3.28l0,0
			c-1.81,0-3.28-1.47-3.28-3.28V19.8C329.38,17.99,330.84,16.53,332.65,16.53z"/>
		<path class="st2" d="M407.63,77.16l4,5.05c1.62,2.05,0.16,5.07-2.45,5.07h-0.09c-0.96,0-1.86-0.44-2.46-1.19l-4.08-5.18
			c-0.94-1.19-2.58-1.51-3.93-0.82c-4.77,2.45-10.05,3.67-15.82,3.67c-9.71,0-17.9-3.33-24.58-9.99
			c-6.68-6.66-10.02-14.71-10.02-24.16c0-6.3,1.53-12.15,4.59-17.54c3.06-5.39,7.22-9.61,12.5-12.64
			c5.27-3.03,11.06-4.55,17.35-4.55c9.71,0,17.9,3.32,24.57,9.96c6.67,6.64,10,14.81,10,24.5c0,5.05-0.91,9.67-2.74,13.86
			c-1.52,3.49-3.75,6.79-6.68,9.91C406.73,74.23,406.68,75.96,407.63,77.16z M399.57,66.96c1.26,1.59,3.66,1.58,4.92-0.01
			c3.96-4.99,5.94-10.88,5.94-17.67c0-5.21-1.21-9.92-3.63-14.13c-2.42-4.21-5.83-7.58-10.23-10.11c-4.4-2.53-9.04-3.79-13.91-3.79
			c-4.9,0-9.53,1.26-13.86,3.77c-4.34,2.51-7.73,5.92-10.16,10.22c-2.44,4.3-3.66,9.08-3.66,14.34c0,7.79,2.69,14.37,8.07,19.74
			c5.38,5.37,11.87,8.05,19.48,8.05c3.75,0,7.28-0.66,10.57-1.98c1.95-0.78,2.61-3.2,1.31-4.85l-11.52-14.26l7.02-1.71L399.57,66.96
			z"/>
		<path class="st2" d="M433.99,16.53L433.99,16.53c1.81,0,3.28,1.47,3.28,3.28v36.31c0,4.7,0.09,7.62,0.27,8.78
			c0.33,2.59,1.08,4.75,2.27,6.49c1.19,1.74,3.02,3.19,5.48,4.37c2.47,1.17,4.95,1.76,7.44,1.76c2.17,0,4.25-0.46,6.24-1.38
			c1.99-0.92,3.66-2.2,4.99-3.83c1.34-1.63,2.32-3.61,2.94-5.93c0.45-1.66,0.67-5.08,0.67-10.25V19.8c0-1.81,1.47-3.28,3.28-3.28
			l0,0c1.81,0,3.28,1.47,3.28,3.28v36.31c0,5.86-0.57,10.59-1.72,14.2c-1.14,3.61-3.43,6.75-6.87,9.43
			c-3.43,2.67-7.59,4.01-12.46,4.01c-5.29,0-9.82-1.26-13.6-3.79c-3.77-2.53-6.3-5.87-7.58-10.03c-0.8-2.56-1.2-7.16-1.2-13.82V19.8
			C430.71,17.99,432.18,16.53,433.99,16.53z"/>
		<path class="st2" d="M493.52,16.53h31.16c1.77,0,3.21,1.44,3.21,3.21v0c0,1.77-1.44,3.21-3.21,3.21h-24.61
			c-1.77,0-3.21,1.44-3.21,3.21v14.13c0,1.77,1.44,3.21,3.21,3.21h24.34c1.77,0,3.21,1.44,3.21,3.21v0c0,1.77-1.44,3.21-3.21,3.21
			h-24.34c-1.77,0-3.21,1.44-3.21,3.21v19.35c0,1.77,1.44,3.21,3.21,3.21h24.34c1.77,0,3.21,1.44,3.21,3.21v0
			c0,1.77-1.44,3.21-3.21,3.21h-30.89c-1.77,0-3.21-1.44-3.21-3.21V19.74C490.31,17.96,491.75,16.53,493.52,16.53z"/>
		<path class="st0" d="M167.22,10.82h-3.81c-1.91,0-3.45-1.55-3.45-3.45V3.56c0-1.91,1.55-3.45,3.45-3.45l3.81,0
			c1.91,0,3.45,1.55,3.45,3.45v3.81C170.67,9.28,169.13,10.82,167.22,10.82z"/>
		<path class="st0" d="M335.08,10.82h-3.81c-1.91,0-3.45-1.55-3.45-3.45V3.56c0-1.91,1.55-3.45,3.45-3.45l3.81,0
			c1.91,0,3.45,1.55,3.45,3.45v3.81C338.53,9.28,336.98,10.82,335.08,10.82z"/>
		<path class="st2" d="M225.57,50.7c0,2.1,0,4.19,0,6.3c-2.24-0.14-4.3,0.61-6.36,1.3c-0.74,0.25-1.46,0.54-2.18,0.83
			c-0.26,0.11-0.47,0.09-0.72-0.05c-2.99-1.57-6-3.14-9-4.7c-0.05-0.03-0.11-0.05-0.17-0.07c-0.5,0.51-0.95,0.57-1.34,0.2
			c-0.33-0.31-0.34-0.86-0.03-1.18c0.38-0.39,0.84-0.35,1.36,0.15c0.87-0.45,1.75-0.91,2.63-1.37c2.17-1.14,4.34-2.29,6.51-3.42
			c0.16-0.08,0.42-0.07,0.6-0.01c1.97,0.58,3.92,1.2,5.89,1.78c0.45,0.13,0.93,0.19,1.39,0.23C224.63,50.73,225.09,50.7,225.57,50.7
			z M207.22,54.21c2.27,0,4.53,0,6.78,0c0.46,1.37,1.31,1.97,2.5,1.78c1-0.16,1.73-1.04,1.73-2.08c0-1.04-0.73-1.92-1.73-2.08
			c-1.19-0.19-2.03,0.4-2.5,1.78c-2.25,0-4.51,0-6.77,0C207.22,53.82,207.22,54,207.22,54.21z"/>
		<path class="st2" d="M389.9,54.58c-1.73,1.44-3.41,2.56-5.15,4c-1.42-1.94-3.67-3.13-5.66-4.36c-0.71-0.44-1.44-0.84-2.18-1.23
			c-0.27-0.14-0.39-0.33-0.45-0.62c-0.75-3.55-1.51-7.1-2.27-10.65c-0.01-0.06-0.04-0.13-0.05-0.19c-0.76-0.07-1.13-0.39-1.08-0.96
			c0.04-0.48,0.48-0.87,0.95-0.83c0.58,0.05,0.86,0.46,0.81,1.23c0.97,0.41,1.95,0.82,2.93,1.23c2.43,1.01,4.86,2.01,7.28,3.04
			c0.18,0.08,0.34,0.3,0.42,0.49c0.86,2.02,1.7,4.06,2.56,6.08c0.2,0.46,0.48,0.89,0.77,1.31C389.06,53.52,389.57,54.18,389.9,54.58
			z M374.27,41.51c1.55,1.87,3.1,3.74,4.64,5.6c-0.82,1.32-0.73,2.43,0.24,3.28c0.82,0.72,2.04,0.72,2.9,0.01
			c0.86-0.71,1.09-1.92,0.53-2.85c-0.65-1.11-1.72-1.4-3.18-0.85c-1.54-1.86-3.09-3.72-4.64-5.6
			C374.59,41.25,374.44,41.37,374.27,41.51z"/>
	</g>
</g>
<g id="Color_pallete">
</g>
<g id="Icons">
</g>
</svg>
