<?xml version="1.0" encoding="utf-8"?>
<!-- Generator: Adobe Illustrator 24.0.1, SVG Export Plug-In . SVG Version: 6.00 Build 0)  -->
<svg version="1.1" xmlns="http://www.w3.org/2000/svg" xmlns:xlink="http://www.w3.org/1999/xlink" x="0px" y="0px"
	 viewBox="0 0 93.63 80.9" style="enable-background:new 0 0 93.63 80.9;" xml:space="preserve">
<style type="text/css">
	.st0{fill:#FFD067;}
	.st1{fill:#FFFFFF;}
	.st2{fill:#015E6E;}
	.st3{fill:#333333;}
</style>
<g id="All_BG">
	<g id="Layer_1">
		<rect x="-1660.46" y="-555.38" class="st0" width="524.99" height="553.04"/>
		<rect x="-1660.24" y="-2.34" class="st1" width="524.77" height="527.4"/>
		<rect x="-1135.47" y="-2.34" width="555.01" height="527.74"/>
		<rect x="-1135.47" y="-554.58" class="st2" width="555.01" height="552.24"/>
		<rect x="-1661.09" y="525.89" width="269.5" height="252.7"/>
		<rect x="-1391.19" y="525.27" class="st0" width="255.5" height="252.7"/>
		<rect x="-1135.47" y="525.4" class="st1" width="283.51" height="252.7"/>
		<rect x="-851.96" y="525.4" class="st2" width="271.5" height="252.7"/>
	</g>
</g>
<g id="Black_bg__x28_logo_x29_">
	<g id="Black_Bg">
		<path class="st1" d="M-1044.85,293.76V257c0-1.65,1.33-2.98,2.98-2.98h5.78c6.32,0,10.9,0.51,13.76,1.52
			c4.1,1.44,7.3,3.93,9.61,7.47c2.31,3.54,3.46,7.76,3.46,12.67c0,4.23-0.91,7.96-2.74,11.17c-1.83,3.22-4.2,5.59-7.12,7.12
			c-2.92,1.53-7.01,2.3-12.28,2.3h-10.93C-1043.72,296.27-1044.85,295.14-1044.85,293.76z M-1040.8,292.28h4.88
			c5.84,0,9.89-0.36,12.15-1.09c3.18-1.03,5.68-2.89,7.5-5.58c1.82-2.69,2.73-5.97,2.73-9.86c0-4.07-0.99-7.56-2.96-10.45
			c-1.97-2.89-4.72-4.87-8.24-5.94c-2.64-0.8-7-1.21-13.07-1.21l0,0c-1.65,0-2.99,1.34-2.99,2.99V292.28z"/>
		<path class="st1" d="M-997.92,254.02h18.88c1.21,0,2.2,0.98,2.2,2.2v1.39c0,0.3-0.25,0.55-0.55,0.55h-18.89
			c-0.3,0-0.55,0.25-0.55,0.55v12.14c0,0.3,0.25,0.55,0.55,0.55h17.06c1.22,0,2.21,0.99,2.21,2.21v1.13c0,0.44-0.36,0.8-0.8,0.8
			h-18.47c-0.3,0-0.55,0.25-0.55,0.55v15.5c0,0.3,0.25,0.55,0.55,0.55h18.17c0.61,0,1.1,0.49,1.1,1.1v2.49
			c0,0.3-0.25,0.55-0.55,0.55h-20.46c-1.67,0-3.03-1.36-3.03-3.03v-36.08C-1001.05,255.42-999.65,254.02-997.92,254.02z"/>
		<path class="st1" d="M-972.12,287.33L-972.12,287.33c0.97-0.58,2.22-0.28,2.84,0.67c2.28,3.49,4.85,5.23,7.72,5.23
			c1.42,0,2.75-0.33,3.99-0.99c1.24-0.66,2.19-1.55,2.84-2.66c0.65-1.11,0.98-2.29,0.98-3.53c0-1.42-0.48-2.8-1.44-4.16
			c-1.32-1.88-3.73-4.14-7.24-6.78c-3.52-2.66-5.72-4.59-6.58-5.77c-1.49-1.99-2.24-4.15-2.24-6.46c0-1.84,0.44-3.51,1.32-5.03
			c0.88-1.51,2.12-2.7,3.72-3.58c1.6-0.87,3.34-1.31,5.21-1.31c1.99,0,3.85,0.49,5.59,1.48c1.33,0.76,2.71,2,4.16,3.72
			c0.76,0.91,0.6,2.29-0.35,3.01l-0.12,0.09c-0.88,0.67-2.14,0.54-2.86-0.31c-1.07-1.26-2.02-2.13-2.84-2.62
			c-1.12-0.67-2.34-1.01-3.66-1.01c-1.7,0-3.1,0.52-4.18,1.55c-1.08,1.03-1.62,2.31-1.62,3.82c0,0.92,0.19,1.81,0.57,2.67
			c0.38,0.86,1.08,1.8,2.1,2.81c0.56,0.54,2.37,1.94,5.46,4.22c3.66,2.7,6.16,5.1,7.52,7.21c1.36,2.11,2.04,4.22,2.04,6.35
			c0,3.06-1.16,5.73-3.49,7.98c-2.33,2.26-5.16,3.39-8.49,3.39c-2.57,0-4.89-0.68-6.98-2.05c-1.66-1.09-3.22-2.77-4.68-5.03
			C-973.45,289.25-973.13,287.93-972.12,287.33z"/>
		<path class="st1" d="M-938.74,254.02L-938.74,254.02c1.17,0,2.11,0.95,2.11,2.11v38.03c0,1.17-0.95,2.11-2.11,2.11l0,0
			c-1.17,0-2.11-0.95-2.11-2.11v-38.03C-940.85,254.97-939.91,254.02-938.74,254.02z"/>
		<path class="st1" d="M-887.8,262.64l-0.29,0.27c-0.76,0.72-1.93,0.75-2.72,0.07c-1.98-1.71-4.12-3.06-6.4-4.03
			c-2.8-1.2-5.54-1.8-8.2-1.8c-3.31,0-6.47,0.81-9.46,2.44c-3,1.63-5.32,3.83-6.96,6.62c-1.65,2.79-2.47,5.73-2.47,8.83
			c0,3.18,0.85,6.2,2.56,9.06c1.7,2.86,4.06,5.11,7.07,6.75c3.01,1.64,6.3,2.46,9.88,2.46c4.35,0,8.02-1.22,11.03-3.68
			c2.3-1.87,3.88-4.17,4.75-6.9c0.41-1.31-0.58-2.63-1.95-2.63h-8.88c-1.13,0-2.04-0.91-2.04-2.04l0,0c0-1.13,0.91-2.04,2.04-2.04
			h14.04c1.19,0,2.13,1.02,2.04,2.21c-0.42,5.5-2.33,9.95-5.73,13.34c-3.84,3.84-8.97,5.76-15.41,5.76c-7.81,0-14-2.66-18.55-7.98
			c-3.5-4.1-5.26-8.84-5.26-14.22c0-4,1.01-7.73,3.02-11.17c2.01-3.45,4.77-6.14,8.27-8.08c3.5-1.94,7.47-2.92,11.89-2.92
			c3.58,0,6.95,0.65,10.11,1.94c2.56,1.05,5.08,2.61,7.54,4.69C-886.97,260.37-886.92,261.8-887.8,262.64z"/>
		<path class="st1" d="M-875.63,295.61v-40.96c0-0.35,0.28-0.63,0.63-0.63l0,0c0.18,0,0.36,0.08,0.48,0.22l26.77,30.83
			c0.4,0.46,1.16,0.18,1.16-0.43v-29.96c0-0.36,0.3-0.66,0.66-0.66h2.84c0.36,0,0.66,0.3,0.66,0.66v40.93c0,0.36-0.3,0.66-0.66,0.66
			l0,0c-0.18,0-0.36-0.08-0.48-0.22l-26.54-30.45c-0.4-0.46-1.16-0.18-1.16,0.43v29.57c0,0.36-0.3,0.66-0.66,0.66h-3.04
			C-875.33,296.27-875.63,295.97-875.63,295.61z"/>
		<path class="st1" d="M-830.64,254.02L-830.64,254.02c1.17,0,2.11,0.95,2.11,2.11v38.03c0,1.17-0.95,2.11-2.11,2.11l0,0
			c-1.17,0-2.11-0.95-2.11-2.11v-38.03C-832.75,254.97-831.8,254.02-830.64,254.02z"/>
		<path class="st1" d="M-782.33,293.08l2.58,3.26c1.04,1.32,0.1,3.26-1.58,3.26h-0.06c-0.62,0-1.2-0.28-1.58-0.77l-2.63-3.34
			c-0.6-0.77-1.66-0.97-2.53-0.53c-3.08,1.58-6.47,2.37-10.19,2.37c-6.25,0-11.53-2.14-15.84-6.43c-4.3-4.29-6.46-9.48-6.46-15.57
			c0-4.06,0.98-7.83,2.96-11.3c1.97-3.48,4.65-6.19,8.05-8.14c3.4-1.95,7.12-2.93,11.18-2.93c6.26,0,11.53,2.14,15.83,6.42
			c4.3,4.28,6.44,9.54,6.44,15.78c0,3.26-0.59,6.23-1.77,8.93c-0.98,2.25-2.41,4.37-4.3,6.38
			C-782.91,291.19-782.94,292.31-782.33,293.08z M-787.53,286.51c0.81,1.02,2.36,1.02,3.17-0.01c2.55-3.22,3.83-7.01,3.83-11.38
			c0-3.35-0.78-6.39-2.34-9.1c-1.56-2.71-3.76-4.88-6.59-6.51c-2.83-1.63-5.82-2.44-8.96-2.44c-3.16,0-6.14,0.81-8.93,2.43
			c-2.8,1.62-4.98,3.81-6.55,6.58c-1.57,2.77-2.36,5.85-2.36,9.24c0,5.02,1.73,9.26,5.2,12.72c3.47,3.46,7.65,5.19,12.55,5.19
			c2.42,0,4.69-0.42,6.81-1.27c1.25-0.5,1.68-2.06,0.85-3.12l-7.87-9.99h5.12L-787.53,286.51z"/>
		<path class="st1" d="M-765.35,254.02L-765.35,254.02c1.17,0,2.11,0.95,2.11,2.11v23.39c0,3.03,0.06,4.91,0.17,5.66
			c0.21,1.67,0.7,3.06,1.46,4.18c0.77,1.12,1.94,2.06,3.53,2.81c1.59,0.76,3.19,1.13,4.8,1.13c1.4,0,2.74-0.3,4.02-0.89
			c1.28-0.59,2.36-1.42,3.22-2.47c0.86-1.05,1.49-2.33,1.9-3.82c0.29-1.07,0.43-3.27,0.43-6.61v-23.39c0-1.17,0.95-2.11,2.11-2.11h0
			c1.17,0,2.11,0.95,2.11,2.11v23.39c0,3.77-0.37,6.82-1.11,9.15c-0.74,2.33-2.21,4.35-4.42,6.07c-2.21,1.72-4.89,2.58-8.03,2.58
			c-3.41,0-6.33-0.81-8.76-2.44c-2.43-1.63-4.06-3.78-4.88-6.46c-0.52-1.65-0.78-4.61-0.78-8.9v-23.39
			C-767.46,254.97-766.52,254.02-765.35,254.02z"/>
		<path class="st1" d="M-727,254.02h20.08c1.14,0,2.07,0.93,2.07,2.07l0,0c0,1.14-0.93,2.07-2.07,2.07h-15.85
			c-1.14,0-2.07,0.93-2.07,2.07v9.1c0,1.14,0.93,2.07,2.07,2.07h15.68c1.14,0,2.07,0.93,2.07,2.07l0,0c0,1.14-0.93,2.07-2.07,2.07
			h-15.68c-1.14,0-2.07,0.93-2.07,2.07v12.46c0,1.14,0.93,2.07,2.07,2.07h15.68c1.14,0,2.07,0.93,2.07,2.07l0,0
			c0,1.14-0.93,2.07-2.07,2.07H-727c-1.14,0-2.07-0.93-2.07-2.07v-38.11C-729.07,254.95-728.14,254.02-727,254.02z"/>
		<path class="st0" d="M-696.92,254.09v13.09c0,0.84,0.68,1.52,1.52,1.52h2.93c0.84,0,1.52-0.68,1.52-1.52v-25.51
			c0-0.84-0.68-1.52-1.52-1.52h-29.19c-0.84,0-1.52,0.68-1.52,1.52v2.63c0,0.84,0.68,1.52,1.52,1.52h23.1c0.83,0,1.5,0.66,1.52,1.49
			L-696.92,254.09z"/>
		<path class="st0" d="M-684.73,241.2v9.89c0,0.84,0.68,1.52,1.52,1.52h1.63c0.84,0,1.52-0.68,1.52-1.52v-19.26
			c0-0.84-0.68-1.52-1.52-1.52h-22.15c-0.84,0-1.52,0.68-1.52,1.52v1.39c0,0.84,0.68,1.52,1.52,1.52h17.39
			c0.83,0,1.5,0.66,1.52,1.49L-684.73,241.2z"/>
		<path class="st0" d="M-675.28,230.6v6.32c0,0.84,0.68,1.52,1.52,1.52h0.16c0.84,0,1.52-0.68,1.52-1.52v-12.28
			c0-0.84-0.68-1.52-1.52-1.52h-14.26c-0.84,0-1.52,0.68-1.52,1.52l0,0c0,0.84,0.68,1.52,1.52,1.52h11c0.83,0,1.5,0.66,1.52,1.49
			L-675.28,230.6z"/>
		<path class="st1" d="M-938.44,250.35L-938.44,250.35c-1.91,0-3.45-1.55-3.45-3.45l0,0c0-1.91,1.55-3.45,3.45-3.45l0,0
			c1.91,0,3.45,1.55,3.45,3.45l0,0C-934.99,248.8-936.53,250.35-938.44,250.35z"/>
		<path class="st1" d="M-830.3,250.35L-830.3,250.35c-1.91,0-3.45-1.55-3.45-3.45l0,0c0-1.91,1.55-3.45,3.45-3.45l0,0
			c1.91,0,3.45,1.55,3.45,3.45l0,0C-826.85,248.8-828.4,250.35-830.3,250.35z"/>
		<path class="st0" d="M-938.44,250.35L-938.44,250.35c-1.91,0-3.45-1.55-3.45-3.45l0,0c0-1.91,1.55-3.45,3.45-3.45l0,0
			c1.91,0,3.45,1.55,3.45,3.45l0,0C-934.99,248.8-936.53,250.35-938.44,250.35z"/>
		<path class="st0" d="M-830.3,250.35L-830.3,250.35c-1.91,0-3.45-1.55-3.45-3.45l0,0c0-1.91,1.55-3.45,3.45-3.45l0,0
			c1.91,0,3.45,1.55,3.45,3.45l0,0C-826.85,248.8-828.4,250.35-830.3,250.35z"/>
		<path class="st1" d="M-899.49,276.02c0,1.38,0,2.69,0,4.08c-1.47-0.09-2.83,0.44-4.18,0.89c-0.48,0.16-0.96,0.35-1.43,0.55
			c-0.17,0.07-0.31,0.06-0.47-0.03c-1.97-1.04-3.94-2.06-5.92-3.09c-0.04-0.02-0.07-0.03-0.11-0.05c-0.33,0.33-0.63,0.38-0.88,0.13
			c-0.21-0.21-0.22-0.56-0.02-0.77c0.25-0.26,0.55-0.23,0.9,0.1c0.57-0.3,1.15-0.6,1.73-0.9c1.43-0.75,2.85-1.51,4.28-2.25
			c0.11-0.06,0.27-0.04,0.4-0.01c1.29,0.38,2.58,0.79,3.87,1.17c0.3,0.09,0.61,0.12,0.92,0.15
			C-900.11,276.01-899.8,276.02-899.49,276.02z M-912.84,278.34c1.84,0,3.67,0,5.49,0c0.38,1.11,1.06,1.59,2.02,1.44
			c0.81-0.13,1.4-0.84,1.4-1.68c0-0.84-0.59-1.56-1.4-1.69c-0.96-0.15-1.65,0.33-2.02,1.44c-1.82,0-3.65,0-5.49,0
			C-912.84,278.03-912.84,278.17-912.84,278.34z"/>
		<path class="st1" d="M-792.68,280c-1.1,0.91-2.28,1.34-3.38,2.25c-0.9-1.23-2.33-1.98-3.58-2.76c-0.45-0.28-0.91-0.53-1.38-0.78
			c-0.17-0.09-0.25-0.21-0.29-0.39c-0.47-2.25-0.96-4.5-1.44-6.75c-0.01-0.04-0.02-0.08-0.03-0.12c-0.48-0.04-0.71-0.25-0.69-0.61
			c0.02-0.31,0.3-0.55,0.6-0.53c0.37,0.03,0.55,0.29,0.51,0.78c0.61,0.26,1.24,0.52,1.86,0.78c1.54,0.64,3.08,1.28,4.61,1.93
			c0.11,0.05,0.22,0.19,0.27,0.31c0.55,1.28,1.07,2.57,1.63,3.85c0.13,0.29,0.3,0.57,0.49,0.83
			C-793.33,279.04-792.89,279.75-792.68,280z M-802.7,271.43c0.98,1.19,1.96,2.37,2.94,3.55c-0.52,0.84-0.46,1.54,0.15,2.08
			c0.52,0.45,1.29,0.46,1.84,0c0.55-0.45,0.69-1.21,0.34-1.81c-0.42-0.7-1.09-0.89-2.01-0.54c-0.97-1.18-1.95-2.36-2.94-3.55
			C-802.5,271.27-802.59,271.34-802.7,271.43z"/>
	</g>
</g>
<g id="White_bg_x28_Logo_x29_">
	<g id="white_bg">
		<path class="st2" d="M-1583.85,293.76V257c0-1.65,1.33-2.98,2.98-2.98h5.78c6.32,0,10.9,0.51,13.76,1.52
			c4.1,1.44,7.3,3.93,9.61,7.47c2.31,3.54,3.46,7.76,3.46,12.67c0,4.23-0.91,7.96-2.74,11.17c-1.83,3.22-4.2,5.59-7.12,7.12
			c-2.92,1.53-7.01,2.3-12.28,2.3h-10.93C-1582.72,296.27-1583.85,295.14-1583.85,293.76z M-1579.8,292.28h4.88
			c5.84,0,9.89-0.36,12.15-1.09c3.18-1.03,5.68-2.89,7.5-5.58c1.82-2.69,2.73-5.97,2.73-9.86c0-4.07-0.99-7.56-2.96-10.45
			c-1.97-2.89-4.72-4.87-8.24-5.94c-2.64-0.8-7-1.21-13.07-1.21l0,0c-1.65,0-2.99,1.34-2.99,2.99V292.28z"/>
		<path class="st2" d="M-1536.92,254.02h18.88c1.21,0,2.2,0.98,2.2,2.2v1.39c0,0.3-0.25,0.55-0.55,0.55h-18.89
			c-0.3,0-0.55,0.25-0.55,0.55v12.14c0,0.3,0.25,0.55,0.55,0.55h17.06c1.22,0,2.21,0.99,2.21,2.21v1.13c0,0.44-0.36,0.8-0.8,0.8
			h-18.47c-0.3,0-0.55,0.25-0.55,0.55v15.5c0,0.3,0.25,0.55,0.55,0.55h18.17c0.61,0,1.1,0.49,1.1,1.1v2.49
			c0,0.3-0.25,0.55-0.55,0.55h-20.46c-1.67,0-3.03-1.36-3.03-3.03v-36.08C-1540.05,255.42-1538.65,254.02-1536.92,254.02z"/>
		<path class="st2" d="M-1511.12,287.33L-1511.12,287.33c0.97-0.58,2.22-0.28,2.84,0.67c2.28,3.49,4.85,5.23,7.72,5.23
			c1.42,0,2.75-0.33,3.99-0.99c1.24-0.66,2.19-1.55,2.84-2.66c0.65-1.11,0.98-2.29,0.98-3.53c0-1.42-0.48-2.8-1.44-4.16
			c-1.32-1.88-3.73-4.14-7.24-6.78c-3.52-2.66-5.72-4.59-6.58-5.77c-1.49-1.99-2.24-4.15-2.24-6.46c0-1.84,0.44-3.51,1.32-5.03
			c0.88-1.51,2.12-2.7,3.72-3.58c1.6-0.87,3.34-1.31,5.21-1.31c1.99,0,3.85,0.49,5.59,1.48c1.33,0.76,2.71,2,4.16,3.72
			c0.76,0.91,0.6,2.29-0.35,3.01l-0.12,0.09c-0.88,0.67-2.14,0.54-2.86-0.31c-1.07-1.26-2.02-2.13-2.84-2.62
			c-1.12-0.67-2.34-1.01-3.66-1.01c-1.7,0-3.1,0.52-4.18,1.55c-1.08,1.03-1.62,2.31-1.62,3.82c0,0.92,0.19,1.81,0.57,2.67
			c0.38,0.86,1.08,1.8,2.1,2.81c0.56,0.54,2.37,1.94,5.46,4.22c3.66,2.7,6.17,5.1,7.52,7.21c1.36,2.11,2.04,4.22,2.04,6.35
			c0,3.06-1.16,5.73-3.49,7.98c-2.33,2.26-5.16,3.39-8.49,3.39c-2.57,0-4.89-0.68-6.98-2.05c-1.66-1.09-3.22-2.77-4.68-5.03
			C-1512.45,289.25-1512.13,287.93-1511.12,287.33z"/>
		<path class="st2" d="M-1477.74,254.02L-1477.74,254.02c1.17,0,2.11,0.95,2.11,2.11v38.03c0,1.17-0.95,2.11-2.11,2.11l0,0
			c-1.17,0-2.11-0.95-2.11-2.11v-38.03C-1479.85,254.97-1478.91,254.02-1477.74,254.02z"/>
		<path class="st2" d="M-1426.8,262.64l-0.29,0.27c-0.76,0.72-1.93,0.75-2.72,0.07c-1.98-1.71-4.12-3.06-6.4-4.03
			c-2.8-1.2-5.54-1.8-8.2-1.8c-3.31,0-6.47,0.81-9.46,2.44c-3,1.63-5.32,3.83-6.96,6.62c-1.65,2.79-2.47,5.73-2.47,8.83
			c0,3.18,0.85,6.2,2.56,9.06c1.7,2.86,4.06,5.11,7.07,6.75c3.01,1.64,6.3,2.46,9.88,2.46c4.35,0,8.02-1.22,11.03-3.68
			c2.3-1.87,3.88-4.17,4.75-6.9c0.41-1.31-0.58-2.63-1.95-2.63h-8.88c-1.13,0-2.04-0.91-2.04-2.04l0,0c0-1.13,0.91-2.04,2.04-2.04
			h14.04c1.19,0,2.13,1.02,2.04,2.21c-0.42,5.5-2.33,9.95-5.73,13.34c-3.84,3.84-8.97,5.76-15.41,5.76c-7.81,0-14-2.66-18.55-7.98
			c-3.5-4.1-5.26-8.84-5.26-14.22c0-4,1.01-7.73,3.02-11.17c2.01-3.45,4.77-6.14,8.27-8.08c3.5-1.94,7.47-2.92,11.89-2.92
			c3.58,0,6.95,0.65,10.11,1.94c2.56,1.05,5.08,2.61,7.54,4.69C-1425.97,260.37-1425.92,261.8-1426.8,262.64z"/>
		<path class="st2" d="M-1414.63,295.61v-40.96c0-0.35,0.28-0.63,0.63-0.63l0,0c0.18,0,0.36,0.08,0.48,0.22l26.77,30.83
			c0.4,0.46,1.16,0.18,1.16-0.43v-29.96c0-0.36,0.3-0.66,0.66-0.66h2.84c0.36,0,0.66,0.3,0.66,0.66v40.93c0,0.36-0.3,0.66-0.66,0.66
			l0,0c-0.18,0-0.36-0.08-0.48-0.22l-26.54-30.45c-0.4-0.46-1.16-0.18-1.16,0.43v29.57c0,0.36-0.3,0.66-0.66,0.66h-3.04
			C-1414.33,296.27-1414.63,295.97-1414.63,295.61z"/>
		<path class="st2" d="M-1369.64,254.02L-1369.64,254.02c1.17,0,2.11,0.95,2.11,2.11v38.03c0,1.17-0.95,2.11-2.11,2.11l0,0
			c-1.17,0-2.11-0.95-2.11-2.11v-38.03C-1371.75,254.97-1370.8,254.02-1369.64,254.02z"/>
		<path class="st2" d="M-1321.33,293.08l2.58,3.26c1.04,1.32,0.1,3.26-1.58,3.26h-0.06c-0.62,0-1.2-0.28-1.58-0.77l-2.63-3.34
			c-0.6-0.77-1.66-0.97-2.53-0.53c-3.07,1.58-6.47,2.37-10.19,2.37c-6.25,0-11.53-2.14-15.84-6.43c-4.3-4.29-6.46-9.48-6.46-15.57
			c0-4.06,0.98-7.83,2.96-11.3c1.97-3.48,4.65-6.19,8.05-8.14c3.4-1.95,7.12-2.93,11.18-2.93c6.26,0,11.53,2.14,15.83,6.42
			c4.3,4.28,6.44,9.54,6.44,15.78c0,3.26-0.59,6.23-1.77,8.93c-0.98,2.25-2.41,4.37-4.3,6.38
			C-1321.91,291.19-1321.94,292.31-1321.33,293.08z M-1326.53,286.51c0.81,1.02,2.36,1.02,3.17-0.01c2.55-3.22,3.83-7.01,3.83-11.38
			c0-3.35-0.78-6.39-2.34-9.1c-1.56-2.71-3.76-4.88-6.59-6.51c-2.83-1.63-5.82-2.44-8.96-2.44c-3.16,0-6.14,0.81-8.93,2.43
			c-2.8,1.62-4.98,3.81-6.55,6.58c-1.57,2.77-2.36,5.85-2.36,9.24c0,5.02,1.73,9.26,5.2,12.72c3.47,3.46,7.65,5.19,12.55,5.19
			c2.42,0,4.69-0.42,6.81-1.27c1.25-0.5,1.68-2.06,0.85-3.12l-7.42-9.18l4.52-1.1L-1326.53,286.51z"/>
		<path class="st2" d="M-1304.35,254.02L-1304.35,254.02c1.17,0,2.11,0.95,2.11,2.11v23.39c0,3.03,0.06,4.91,0.17,5.66
			c0.21,1.67,0.7,3.06,1.46,4.18c0.77,1.12,1.94,2.06,3.53,2.81c1.59,0.76,3.19,1.13,4.8,1.13c1.4,0,2.74-0.3,4.02-0.89
			c1.28-0.59,2.36-1.42,3.22-2.47c0.86-1.05,1.49-2.33,1.9-3.82c0.29-1.07,0.43-3.27,0.43-6.61v-23.39c0-1.17,0.95-2.11,2.11-2.11
			l0,0c1.17,0,2.11,0.95,2.11,2.11v23.39c0,3.77-0.37,6.82-1.11,9.15c-0.74,2.33-2.21,4.35-4.42,6.07
			c-2.21,1.72-4.89,2.58-8.03,2.58c-3.41,0-6.33-0.81-8.76-2.44c-2.43-1.63-4.06-3.78-4.88-6.46c-0.52-1.65-0.78-4.61-0.78-8.9
			v-23.39C-1306.46,254.97-1305.52,254.02-1304.35,254.02z"/>
		<path class="st2" d="M-1266,254.02h20.08c1.14,0,2.07,0.93,2.07,2.07l0,0c0,1.14-0.93,2.07-2.07,2.07h-15.85
			c-1.14,0-2.07,0.93-2.07,2.07v9.1c0,1.14,0.93,2.07,2.07,2.07h15.68c1.14,0,2.07,0.93,2.07,2.07l0,0c0,1.14-0.93,2.07-2.07,2.07
			h-15.68c-1.14,0-2.07,0.93-2.07,2.07v12.46c0,1.14,0.93,2.07,2.07,2.07h15.68c1.14,0,2.07,0.93,2.07,2.07l0,0
			c0,1.14-0.93,2.07-2.07,2.07h-19.9c-1.14,0-2.07-0.93-2.07-2.07v-38.11C-1268.07,254.95-1267.14,254.02-1266,254.02z"/>
		<g>
			<path class="st0" d="M-1235.92,254.09v13.09c0,0.84,0.68,1.52,1.52,1.52h2.93c0.84,0,1.52-0.68,1.52-1.52v-25.51
				c0-0.84-0.68-1.52-1.52-1.52h-29.19c-0.84,0-1.52,0.68-1.52,1.52v2.63c0,0.84,0.68,1.52,1.52,1.52h23.1
				c0.83,0,1.5,0.66,1.52,1.49L-1235.92,254.09z"/>
			<path class="st0" d="M-1223.73,241.2v9.89c0,0.84,0.68,1.52,1.52,1.52h1.63c0.84,0,1.52-0.68,1.52-1.52v-19.26
				c0-0.84-0.68-1.52-1.52-1.52h-22.15c-0.84,0-1.52,0.68-1.52,1.52v1.39c0,0.84,0.68,1.52,1.52,1.52h17.39
				c0.83,0,1.5,0.66,1.52,1.49L-1223.73,241.2z"/>
			<path class="st0" d="M-1214.28,230.6v6.32c0,0.84,0.68,1.52,1.52,1.52h0.16c0.84,0,1.52-0.68,1.52-1.52v-12.28
				c0-0.84-0.68-1.52-1.52-1.52h-14.26c-0.84,0-1.52,0.68-1.52,1.52l0,0c0,0.84,0.68,1.52,1.52,1.52h11c0.83,0,1.5,0.66,1.52,1.49
				L-1214.28,230.6z"/>
		</g>
		<path class="st0" d="M-1477.44,250.35L-1477.44,250.35c-1.91,0-3.45-1.55-3.45-3.45l0,0c0-1.91,1.55-3.45,3.45-3.45l0,0
			c1.91,0,3.45,1.55,3.45,3.45l0,0C-1473.99,248.8-1475.53,250.35-1477.44,250.35z"/>
		<path class="st0" d="M-1369.3,250.35L-1369.3,250.35c-1.91,0-3.45-1.55-3.45-3.45l0,0c0-1.91,1.55-3.45,3.45-3.45l0,0
			c1.91,0,3.45,1.55,3.45,3.45l0,0C-1365.85,248.8-1367.4,250.35-1369.3,250.35z"/>
		<path class="st2" d="M-1438.62,276.04c0,1.35,0,2.7,0,4.06c-1.44-0.09-2.77,0.39-4.1,0.84c-0.47,0.16-0.94,0.35-1.4,0.54
			c-0.17,0.07-0.3,0.06-0.46-0.03c-1.93-1.01-3.86-2.02-5.8-3.03c-0.04-0.02-0.07-0.03-0.11-0.05c-0.32,0.33-0.61,0.37-0.86,0.13
			c-0.21-0.2-0.22-0.55-0.02-0.76c0.24-0.25,0.54-0.22,0.88,0.1c0.56-0.29,1.13-0.59,1.69-0.89c1.4-0.74,2.79-1.48,4.2-2.2
			c0.1-0.05,0.27-0.04,0.39-0.01c1.27,0.38,2.53,0.77,3.79,1.14c0.29,0.08,0.6,0.12,0.9,0.15
			C-1439.23,276.05-1438.93,276.04-1438.62,276.04z M-1450.45,278.3c1.46,0,2.92,0,4.36,0c0.3,0.88,0.85,1.27,1.61,1.15
			c0.64-0.1,1.11-0.67,1.11-1.34c0-0.67-0.47-1.24-1.11-1.34c-0.76-0.12-1.31,0.26-1.61,1.15c-1.45,0-2.9,0-4.36,0
			C-1450.45,278.05-1450.45,278.16-1450.45,278.3z"/>
		<path class="st2" d="M-1332.75,278.54c-1.12,0.92-2.2,1.65-3.32,2.58c-0.92-1.25-2.37-2.02-3.64-2.81
			c-0.46-0.28-0.93-0.54-1.4-0.79c-0.17-0.09-0.25-0.21-0.29-0.4c-0.48-2.29-0.97-4.57-1.46-6.86c-0.01-0.04-0.02-0.08-0.03-0.12
			c-0.49-0.04-0.73-0.25-0.7-0.62c0.02-0.31,0.31-0.56,0.61-0.53c0.38,0.03,0.55,0.29,0.52,0.79c0.62,0.26,1.26,0.53,1.89,0.79
			c1.56,0.65,3.13,1.3,4.69,1.96c0.12,0.05,0.22,0.19,0.27,0.32c0.56,1.3,1.09,2.62,1.65,3.92c0.13,0.3,0.31,0.58,0.49,0.84
			C-1333.3,277.85-1332.97,278.28-1332.75,278.54z M-1342.83,270.12c1,1.21,2,2.41,2.99,3.61c-0.53,0.85-0.47,1.57,0.15,2.11
			c0.53,0.46,1.31,0.46,1.87,0c0.55-0.46,0.7-1.24,0.34-1.84c-0.42-0.71-1.11-0.9-2.05-0.54c-0.99-1.2-1.99-2.4-2.99-3.61
			C-1342.62,269.95-1342.71,270.02-1342.83,270.12z"/>
	</g>
</g>
<g id="Teal_BG__x28_logo_x29_">
	<rect x="-3138.18" y="507.47" class="st2" width="1006.62" height="1000"/>
	<g id="Teal_BG">
		<path class="st0" d="M-2986.77,1068.41v-69.14c0-3.09,2.53-5.6,5.64-5.6h10.94c11.96,0,20.65,0.95,26.05,2.86
			c7.76,2.7,13.82,7.38,18.19,14.05c4.37,6.66,6.55,14.6,6.55,23.82c0,7.96-1.73,14.96-5.19,21.01c-3.46,6.05-7.96,10.52-13.49,13.4
			c-5.53,2.88-13.28,4.32-23.25,4.32h-20.7C-2984.64,1073.13-2986.77,1071.02-2986.77,1068.41z M-2979.1,1065.62h9.24
			c11.06,0,18.72-0.68,23-2.05c6.02-1.94,10.75-5.44,14.19-10.5c3.44-5.06,5.17-11.24,5.17-18.54c0-7.66-1.87-14.21-5.6-19.65
			c-3.73-5.43-8.94-9.16-15.61-11.17c-5-1.51-13.25-2.27-24.74-2.27l0,0c-3.12,0-5.66,2.52-5.66,5.62V1065.62z"/>
		<path class="st0" d="M-2897.91,993.67h35.75c2.3,0,4.16,1.85,4.16,4.13v2.61c0,0.57-0.47,1.03-1.04,1.03h-35.77
			c-0.57,0-1.04,0.46-1.04,1.03v22.84c0,0.57,0.47,1.03,1.04,1.03h32.3c2.31,0,4.18,1.86,4.18,4.15v2.13c0,0.83-0.67,1.5-1.51,1.5
			h-34.97c-0.57,0-1.04,0.46-1.04,1.03v29.16c0,0.57,0.47,1.03,1.04,1.03h34.41c1.15,0,2.07,0.92,2.07,2.06v4.69
			c0,0.57-0.47,1.03-1.04,1.03h-38.74c-3.17,0-5.74-2.55-5.74-5.7v-67.87C-2903.84,996.31-2901.18,993.67-2897.91,993.67z"/>
		<path class="st0" d="M-2849.07,1056.31L-2849.07,1056.31c1.84-1.09,4.21-0.53,5.38,1.25c4.32,6.56,9.19,9.84,14.62,9.84
			c2.68,0,5.2-0.62,7.56-1.86c2.36-1.24,4.15-2.91,5.38-5c1.23-2.09,1.85-4.3,1.85-6.64c0-2.66-0.91-5.28-2.72-7.83
			c-2.5-3.53-7.07-7.78-13.7-12.75c-6.67-5.01-10.82-8.62-12.45-10.86c-2.83-3.75-4.24-7.8-4.24-12.15c0-3.46,0.83-6.61,2.5-9.45
			c1.67-2.84,4.01-5.09,7.04-6.73c3.03-1.64,6.32-2.46,9.87-2.46c3.77,0,7.3,0.93,10.58,2.78c2.51,1.42,5.14,3.75,7.87,7
			c1.45,1.72,1.13,4.3-0.66,5.65l-0.23,0.18c-1.67,1.26-4.05,1.01-5.41-0.57c-2.03-2.37-3.82-4.01-5.37-4.94
			c-2.12-1.26-4.43-1.89-6.93-1.89c-3.23,0-5.86,0.97-7.91,2.92c-2.05,1.94-3.07,4.34-3.07,7.18c0,1.73,0.36,3.4,1.09,5.02
			c0.72,1.62,2.05,3.39,3.97,5.29c1.05,1.01,4.49,3.66,10.33,7.94c6.92,5.08,11.67,9.6,14.25,13.56c2.57,3.96,3.86,7.94,3.86,11.94
			c0,5.76-2.2,10.77-6.61,15.02c-4.4,4.25-9.76,6.37-16.07,6.37c-4.86,0-9.26-1.29-13.21-3.86c-3.15-2.05-6.1-5.21-8.86-9.47
			C-2851.59,1059.94-2850.98,1057.45-2849.07,1056.31z"/>
		<path class="st0" d="M-2785.86,993.67L-2785.86,993.67c2.21,0,4,1.78,4,3.97v71.52c0,2.19-1.79,3.97-4,3.97l0,0
			c-2.21,0-4-1.78-4-3.97v-71.52C-2789.86,995.45-2788.07,993.67-2785.86,993.67z"/>
		<path class="st0" d="M-2689.42,1009.88l-0.54,0.51c-1.43,1.35-3.66,1.41-5.16,0.13c-3.76-3.22-7.8-5.75-12.12-7.58
			c-5.31-2.25-10.49-3.38-15.52-3.38c-6.27,0-12.24,1.53-17.92,4.59c-5.67,3.06-10.07,7.21-13.19,12.45
			c-3.12,5.24-4.68,10.78-4.68,16.61c0,5.98,1.61,11.66,4.84,17.04c3.23,5.38,7.68,9.62,13.38,12.69
			c5.69,3.08,11.93,4.62,18.71,4.62c8.23,0,15.19-2.3,20.88-6.91c4.35-3.53,7.35-7.85,8.99-12.98c0.78-2.45-1.11-4.95-3.7-4.95
			h-16.82c-2.13,0-3.86-1.72-3.86-3.84l0,0c0-2.12,1.73-3.84,3.86-3.84h26.59c2.26,0,4.03,1.92,3.85,4.16
			c-0.8,10.34-4.41,18.71-10.84,25.1c-7.27,7.22-16.99,10.83-29.17,10.83c-14.79,0-26.5-5-35.13-15.02
			c-6.63-7.71-9.95-16.62-9.95-26.74c0-7.53,1.9-14.53,5.71-21.01c3.81-6.48,9.03-11.55,15.66-15.21
			c6.63-3.65,14.14-5.48,22.51-5.48c6.78,0,13.16,1.22,19.14,3.65c4.86,1.97,9.62,4.91,14.28,8.82
			C-2687.84,1005.62-2687.74,1008.3-2689.42,1009.88z"/>
		<path class="st0" d="M-2666.37,1071.89v-77.04c0-0.66,0.53-1.19,1.2-1.19l0,0c0.35,0,0.68,0.15,0.9,0.41l50.68,57.99
			c0.76,0.87,2.2,0.34,2.2-0.81v-56.34c0-0.69,0.56-1.24,1.25-1.24h5.38c0.69,0,1.25,0.56,1.25,1.24v76.98
			c0,0.69-0.56,1.24-1.25,1.24l0,0c-0.35,0-0.67-0.15-0.9-0.41l-50.25-57.27c-0.76-0.87-2.19-0.33-2.19,0.82v55.61
			c0,0.69-0.56,1.24-1.25,1.24h-5.76C-2665.81,1073.13-2666.37,1072.58-2666.37,1071.89z"/>
		<path class="st0" d="M-2581.18,993.67L-2581.18,993.67c2.21,0,4,1.78,4,3.97v71.52c0,2.19-1.79,3.97-4,3.97h0
			c-2.21,0-4-1.78-4-3.97v-71.52C-2585.18,995.45-2583.39,993.67-2581.18,993.67z"/>
		<path class="st0" d="M-2489.72,1067.14l4.88,6.12c1.98,2.48,0.2,6.14-2.99,6.14h-0.11c-1.17,0-2.27-0.53-3-1.44l-4.98-6.28
			c-1.14-1.44-3.15-1.83-4.8-0.99c-5.82,2.97-12.26,4.45-19.3,4.45c-11.84,0-21.84-4.03-29.99-12.1
			c-8.15-8.07-12.22-17.83-12.22-29.28c0-7.63,1.86-14.72,5.6-21.26c3.73-6.54,8.81-11.64,15.24-15.32
			c6.43-3.67,13.49-5.51,21.17-5.51c11.85,0,21.84,4.02,29.97,12.07c8.13,8.05,12.2,17.94,12.2,29.68c0,6.12-1.12,11.72-3.34,16.8
			c-1.86,4.22-4.57,8.23-8.15,12.01C-2490.83,1063.59-2490.88,1065.68-2489.72,1067.14z M-2499.56,1054.78
			c1.53,1.92,4.46,1.91,6-0.01c4.83-6.05,7.25-13.19,7.25-21.41c0-6.31-1.48-12.02-4.43-17.12c-2.96-5.1-7.12-9.18-12.48-12.25
			c-5.37-3.06-11.02-4.6-16.97-4.6c-5.98,0-11.62,1.52-16.91,4.57c-5.29,3.05-9.43,7.17-12.4,12.38c-2.97,5.21-4.46,11-4.46,17.38
			c0,9.44,3.28,17.42,9.84,23.92c6.56,6.51,14.48,9.76,23.76,9.76c4.58,0,8.88-0.8,12.89-2.4c2.37-0.94,3.18-3.88,1.6-5.88
			l-14.9-18.79h9.7L-2499.56,1054.78z"/>
		<path class="st0" d="M-2457.58,993.67L-2457.58,993.67c2.21,0,4,1.78,4,3.97v44c0,5.69,0.11,9.24,0.33,10.64
			c0.4,3.13,1.32,5.75,2.77,7.86c1.45,2.11,3.68,3.87,6.69,5.29c3.01,1.42,6.04,2.13,9.08,2.13c2.65,0,5.18-0.56,7.61-1.67
			c2.43-1.12,4.46-2.66,6.09-4.65c1.63-1.98,2.83-4.38,3.59-7.18c0.54-2.02,0.82-6.16,0.82-12.42v-44c0-2.19,1.79-3.97,4-3.97l0,0
			c2.21,0,4,1.78,4,3.97v44c0,7.1-0.7,12.83-2.09,17.21c-1.4,4.38-4.19,8.18-8.37,11.43c-4.19,3.24-9.25,4.86-15.2,4.86
			c-6.45,0-11.98-1.53-16.59-4.59c-4.6-3.06-7.69-7.11-9.24-12.15c-0.98-3.1-1.47-8.68-1.47-16.75v-44
			C-2461.58,995.45-2459.79,993.67-2457.58,993.67z"/>
		<path class="st0" d="M-2384.96,993.67h38.01c2.16,0,3.92,1.74,3.92,3.89v0c0,2.15-1.75,3.89-3.92,3.89h-30.02
			c-2.16,0-3.92,1.74-3.92,3.89v17.12c0,2.15,1.75,3.89,3.92,3.89h29.69c2.16,0,3.92,1.74,3.92,3.89l0,0c0,2.15-1.75,3.89-3.92,3.89
			h-29.69c-2.16,0-3.92,1.74-3.92,3.89v23.44c0,2.15,1.75,3.89,3.92,3.89h29.69c2.16,0,3.92,1.74,3.92,3.89l0,0
			c0,2.15-1.75,3.89-3.92,3.89h-37.68c-2.16,0-3.92-1.74-3.92-3.89v-71.69C-2388.87,995.41-2387.12,993.67-2384.96,993.67z"/>
		<g>
			<path class="st1" d="M-2328.02,993.79v24.62c0,1.58,1.29,2.86,2.88,2.86h5.55c1.59,0,2.88-1.28,2.88-2.86v-47.97
				c0-1.58-1.29-2.86-2.88-2.86h-55.28c-1.59,0-2.88,1.28-2.88,2.86v4.94c0,1.58,1.29,2.86,2.88,2.86h43.73
				c1.57,0,2.85,1.25,2.88,2.81L-2328.02,993.79z"/>
			<path class="st1" d="M-2304.93,969.56v18.61c0,1.58,1.29,2.86,2.88,2.86h3.08c1.59,0,2.88-1.28,2.88-2.86v-36.23
				c0-1.58-1.29-2.86-2.88-2.86h-41.93c-1.59,0-2.88,1.28-2.88,2.86v2.61c0,1.58,1.29,2.86,2.88,2.86h32.92
				c1.57,0,2.85,1.25,2.88,2.81L-2304.93,969.56z"/>
			<path class="st1" d="M-2287.03,949.61v11.88c0,1.58,1.29,2.86,2.88,2.86h0.31c1.59,0,2.88-1.28,2.88-2.86v-23.09
				c0-1.58-1.29-2.86-2.88-2.86h-26.99c-1.59,0-2.88,1.28-2.88,2.86l0,0c0,1.58,1.29,2.86,2.88,2.86h20.82
				c1.57,0,2.85,1.25,2.88,2.81L-2287.03,949.61z"/>
		</g>
		<path class="st0" d="M-2782.21,986.76h-6.17c-1.91,0-3.45-1.55-3.45-3.45v-6.08c0-1.91,1.54-3.45,3.45-3.45h6.17
			c1.91,0,3.45,1.55,3.45,3.45v6.08C-2778.76,985.21-2780.31,986.76-2782.21,986.76z"/>
		<path class="st0" d="M-2577.47,986.76h-6.17c-1.91,0-3.45-1.55-3.45-3.45v-6.08c0-1.91,1.55-3.45,3.45-3.45h6.17
			c1.91,0,3.45,1.55,3.45,3.45v6.08C-2574.02,985.21-2575.56,986.76-2577.47,986.76z"/>
		<path class="st1" d="M-2782.21,986.76h-6.17c-1.91,0-3.45-1.55-3.45-3.45v-6.08c0-1.91,1.54-3.45,3.45-3.45h6.17
			c1.91,0,3.45,1.55,3.45,3.45v6.08C-2778.76,985.21-2780.31,986.76-2782.21,986.76z"/>
		<path class="st1" d="M-2577.47,986.76h-6.17c-1.91,0-3.45-1.55-3.45-3.45v-6.08c0-1.91,1.55-3.45,3.45-3.45h6.17
			c1.91,0,3.45,1.55,3.45,3.45v6.08C-2574.02,985.21-2575.56,986.76-2577.47,986.76z"/>
		<path class="st0" d="M-2709.48,1035.05c0,2.61,0,5.05,0,7.67c-2.81-0.17-5.47,0.86-8.06,1.72c-0.92,0.31-1.83,0.67-2.73,1.04
			c-0.33,0.13-0.58,0.11-0.9-0.06c-3.76-1.96-7.52-3.91-11.28-5.86c-0.07-0.04-0.14-0.06-0.21-0.09c-0.63,0.63-1.2,0.72-1.68,0.25
			c-0.41-0.39-0.43-1.07-0.04-1.47c0.48-0.49,1.05-0.43,1.71,0.19c1.09-0.57,2.19-1.14,3.3-1.71c2.72-1.42,5.44-2.85,8.17-4.26
			c0.2-0.1,0.52-0.08,0.76-0.02c2.47,0.73,4.92,1.49,7.39,2.21c0.56,0.16,1.16,0.23,1.75,0.28
			C-2710.74,1035.01-2710.09,1035.05-2709.48,1035.05z M-2732.59,1039.34c2.84,0,5.68,0,8.5,0c0.58,1.71,1.65,2.45,3.13,2.22
			c1.25-0.2,2.17-1.29,2.17-2.59c0-1.3-0.92-2.39-2.17-2.59c-1.49-0.24-2.55,0.5-3.13,2.22c-2.82,0-5.65,0-8.5,0
			C-2732.59,1038.86-2732.59,1039.08-2732.59,1039.34z"/>
		<path class="st0" d="M-2510.02,1041.65c-2.48,2.04-3.4,2.77-5.89,4.82c-2.03-2.76-6.05-4.14-8.88-5.89
			c-1.01-0.63-2.07-1.19-3.12-1.75c-0.38-0.2-0.56-0.46-0.65-0.88c-1.07-5.05-2.16-10.09-3.25-15.13c-0.02-0.09-0.05-0.18-0.07-0.27
			c-1.09-0.09-1.61-0.56-1.55-1.37c0.05-0.69,0.68-1.23,1.36-1.18c0.83,0.07,1.23,0.65,1.15,1.75c1.39,0.58,2.79,1.17,4.2,1.75
			c3.47,1.44,6.95,2.86,10.42,4.32c0.26,0.11,0.49,0.42,0.6,0.7c1.23,2.88,2.43,5.77,3.67,8.64c0.28,0.65,0.55,1.28,0.86,1.92
			C-2510.86,1039.71-2510.49,1041.08-2510.02,1041.65z M-2531.7,1022.52c2.22,2.66,4.43,5.32,6.63,7.95
			c-1.17,1.88-1.04,3.45,0.34,4.66c1.17,1.02,2.92,1.02,4.15,0.01c1.23-1.01,1.55-2.72,0.76-4.05c-0.94-1.58-2.47-1.99-4.55-1.2
			c-2.2-2.64-4.41-5.29-6.63-7.95C-2531.25,1022.14-2531.45,1022.31-2531.7,1022.52z"/>
	</g>
</g>
<g id="Yellow_BG__x28_Logo_x29_">
	<g id="yellow_Bg">
		<path class="st3" d="M-1570.13-257.94v-36.76c0-1.65,1.33-2.98,2.98-2.98h5.78c6.32,0,10.9,0.51,13.76,1.52
			c4.1,1.44,7.3,3.93,9.61,7.47c2.31,3.54,3.46,7.76,3.46,12.67c0,4.23-0.91,7.96-2.74,11.17c-1.83,3.22-4.2,5.59-7.12,7.12
			c-2.92,1.53-7.01,2.3-12.28,2.3h-10.93C-1569.01-255.43-1570.13-256.55-1570.13-257.94z M-1566.08-259.42h4.88
			c5.84,0,9.89-0.36,12.15-1.09c3.18-1.03,5.68-2.89,7.5-5.58c1.82-2.69,2.73-5.97,2.73-9.86c0-4.07-0.99-7.56-2.96-10.45
			c-1.97-2.89-4.72-4.87-8.24-5.94c-2.64-0.8-7-1.21-13.07-1.21l0,0c-1.65,0-2.99,1.34-2.99,2.99V-259.42z"/>
		<path class="st3" d="M-1523.2-297.67h18.88c1.21,0,2.2,0.98,2.2,2.2v1.39c0,0.3-0.25,0.55-0.55,0.55h-18.89
			c-0.3,0-0.55,0.25-0.55,0.55v12.14c0,0.3,0.25,0.55,0.55,0.55h17.06c1.22,0,2.21,0.99,2.21,2.21v1.13c0,0.44-0.36,0.8-0.8,0.8
			h-18.47c-0.3,0-0.55,0.25-0.55,0.55v15.5c0,0.3,0.25,0.55,0.55,0.55h18.17c0.61,0,1.1,0.49,1.1,1.1v2.49
			c0,0.3-0.25,0.55-0.55,0.55h-20.46c-1.67,0-3.03-1.36-3.03-3.03v-36.08C-1526.33-296.27-1524.93-297.67-1523.2-297.67z"/>
		<path class="st3" d="M-1497.4-264.37L-1497.4-264.37c0.97-0.58,2.22-0.28,2.84,0.67c2.28,3.49,4.85,5.23,7.72,5.23
			c1.42,0,2.75-0.33,3.99-0.99c1.24-0.66,2.19-1.55,2.84-2.66c0.65-1.11,0.98-2.29,0.98-3.53c0-1.42-0.48-2.8-1.44-4.16
			c-1.32-1.88-3.73-4.14-7.24-6.78c-3.52-2.66-5.72-4.59-6.58-5.77c-1.49-1.99-2.24-4.15-2.24-6.46c0-1.84,0.44-3.51,1.32-5.03
			c0.88-1.51,2.12-2.7,3.72-3.58c1.6-0.87,3.34-1.31,5.21-1.31c1.99,0,3.85,0.49,5.59,1.48c1.33,0.76,2.71,2,4.16,3.72
			c0.76,0.91,0.6,2.29-0.35,3.01l-0.12,0.09c-0.88,0.67-2.14,0.54-2.86-0.31c-1.07-1.26-2.02-2.13-2.84-2.62
			c-1.12-0.67-2.34-1.01-3.66-1.01c-1.7,0-3.1,0.52-4.18,1.55c-1.08,1.03-1.62,2.31-1.62,3.82c0,0.92,0.19,1.81,0.57,2.67
			c0.38,0.86,1.08,1.8,2.1,2.81c0.56,0.54,2.37,1.94,5.46,4.22c3.66,2.7,6.17,5.1,7.52,7.21c1.36,2.11,2.04,4.22,2.04,6.35
			c0,3.06-1.16,5.73-3.49,7.98c-2.33,2.26-5.16,3.39-8.49,3.39c-2.57,0-4.89-0.68-6.98-2.05c-1.66-1.09-3.22-2.77-4.68-5.03
			C-1498.73-262.44-1498.41-263.76-1497.4-264.37z"/>
		<path class="st3" d="M-1464.02-297.67L-1464.02-297.67c1.17,0,2.11,0.95,2.11,2.11v38.03c0,1.17-0.95,2.11-2.11,2.11l0,0
			c-1.17,0-2.11-0.95-2.11-2.11v-38.03C-1466.13-296.73-1465.19-297.67-1464.02-297.67z"/>
		<path class="st3" d="M-1413.08-289.06l-0.29,0.27c-0.76,0.72-1.93,0.75-2.72,0.07c-1.98-1.71-4.12-3.06-6.4-4.03
			c-2.8-1.2-5.54-1.8-8.2-1.8c-3.31,0-6.47,0.81-9.46,2.44c-3,1.63-5.32,3.83-6.96,6.62c-1.65,2.79-2.47,5.73-2.47,8.83
			c0,3.18,0.85,6.2,2.56,9.06c1.7,2.86,4.06,5.11,7.07,6.75c3.01,1.64,6.3,2.46,9.88,2.46c4.35,0,8.02-1.22,11.03-3.68
			c2.3-1.87,3.88-4.17,4.75-6.9c0.41-1.31-0.58-2.63-1.95-2.63h-8.88c-1.13,0-2.04-0.91-2.04-2.04l0,0c0-1.13,0.91-2.04,2.04-2.04
			h14.05c1.19,0,2.13,1.02,2.04,2.21c-0.42,5.5-2.33,9.95-5.73,13.34c-3.84,3.84-8.97,5.76-15.41,5.76c-7.81,0-14-2.66-18.55-7.98
			c-3.5-4.1-5.26-8.84-5.26-14.22c0-4,1.01-7.73,3.02-11.17c2.01-3.45,4.77-6.14,8.27-8.08c3.5-1.94,7.47-2.92,11.89-2.92
			c3.58,0,6.95,0.65,10.11,1.94c2.56,1.05,5.08,2.61,7.54,4.69C-1412.25-291.32-1412.2-289.9-1413.08-289.06z"/>
		<path class="st3" d="M-1400.91-256.09v-40.96c0-0.35,0.28-0.63,0.63-0.63l0,0c0.18,0,0.36,0.08,0.48,0.22l26.77,30.83
			c0.4,0.46,1.16,0.18,1.16-0.43v-29.96c0-0.36,0.3-0.66,0.66-0.66h2.84c0.36,0,0.66,0.3,0.66,0.66v40.93c0,0.36-0.3,0.66-0.66,0.66
			l0,0c-0.18,0-0.36-0.08-0.48-0.22l-26.54-30.45c-0.4-0.46-1.16-0.18-1.16,0.43v29.57c0,0.36-0.3,0.66-0.66,0.66h-3.04
			C-1400.61-255.43-1400.91-255.72-1400.91-256.09z"/>
		<path class="st3" d="M-1355.92-297.67L-1355.92-297.67c1.17,0,2.11,0.95,2.11,2.11v38.03c0,1.17-0.95,2.11-2.11,2.11l0,0
			c-1.17,0-2.11-0.95-2.11-2.11v-38.03C-1358.03-296.73-1357.08-297.67-1355.92-297.67z"/>
		<path class="st3" d="M-1307.61-258.61l2.58,3.26c1.04,1.32,0.1,3.26-1.58,3.26h-0.06c-0.62,0-1.2-0.28-1.58-0.77l-2.63-3.34
			c-0.6-0.77-1.66-0.97-2.53-0.53c-3.07,1.58-6.47,2.37-10.19,2.37c-6.25,0-11.53-2.14-15.84-6.43c-4.3-4.29-6.46-9.48-6.46-15.57
			c0-4.06,0.98-7.83,2.96-11.3c1.97-3.48,4.65-6.19,8.05-8.14c3.4-1.95,7.12-2.93,11.18-2.93c6.26,0,11.53,2.14,15.83,6.42
			c4.3,4.28,6.44,9.54,6.44,15.78c0,3.26-0.59,6.23-1.77,8.93c-0.98,2.25-2.41,4.37-4.3,6.38
			C-1308.19-260.5-1308.22-259.39-1307.61-258.61z M-1312.81-265.18c0.81,1.02,2.36,1.02,3.17-0.01c2.55-3.22,3.83-7.01,3.83-11.38
			c0-3.35-0.78-6.39-2.34-9.1c-1.56-2.71-3.76-4.88-6.59-6.51c-2.83-1.63-5.82-2.44-8.96-2.44c-3.16,0-6.14,0.81-8.93,2.43
			c-2.8,1.62-4.98,3.81-6.55,6.58c-1.57,2.77-2.36,5.85-2.36,9.24c0,5.02,1.73,9.26,5.2,12.72c3.47,3.46,7.65,5.19,12.55,5.19
			c2.42,0,4.69-0.42,6.81-1.27c1.25-0.5,1.68-2.06,0.85-3.12l-7.27-9l4.17-1.49L-1312.81-265.18z"/>
		<path class="st3" d="M-1290.63-297.67L-1290.63-297.67c1.17,0,2.11,0.95,2.11,2.11v23.39c0,3.03,0.06,4.91,0.17,5.66
			c0.21,1.67,0.7,3.06,1.46,4.18c0.77,1.12,1.94,2.06,3.53,2.81c1.59,0.76,3.19,1.13,4.8,1.13c1.4,0,2.74-0.3,4.02-0.89
			c1.28-0.59,2.36-1.42,3.22-2.47c0.86-1.05,1.49-2.33,1.9-3.82c0.29-1.07,0.43-3.27,0.43-6.61v-23.39c0-1.17,0.95-2.11,2.11-2.11
			l0,0c1.17,0,2.11,0.95,2.11,2.11v23.39c0,3.77-0.37,6.82-1.11,9.15c-0.74,2.33-2.21,4.35-4.42,6.07
			c-2.21,1.72-4.89,2.58-8.03,2.58c-3.41,0-6.33-0.81-8.76-2.44c-2.43-1.63-4.06-3.78-4.88-6.46c-0.52-1.65-0.78-4.61-0.78-8.9
			v-23.39C-1292.75-296.73-1291.8-297.67-1290.63-297.67z"/>
		<path class="st3" d="M-1252.28-297.67h20.08c1.14,0,2.07,0.93,2.07,2.07l0,0c0,1.14-0.93,2.07-2.07,2.07h-15.85
			c-1.14,0-2.07,0.93-2.07,2.07v9.1c0,1.14,0.93,2.07,2.07,2.07h15.68c1.14,0,2.07,0.93,2.07,2.07l0,0c0,1.14-0.93,2.07-2.07,2.07
			h-15.68c-1.14,0-2.07,0.93-2.07,2.07v12.46c0,1.14,0.93,2.07,2.07,2.07h15.68c1.14,0,2.07,0.93,2.07,2.07l0,0
			c0,1.14-0.93,2.07-2.07,2.07h-19.9c-1.14,0-2.07-0.93-2.07-2.07v-38.11C-1254.35-296.75-1253.42-297.67-1252.28-297.67z"/>
		<g>
			<path class="st1" d="M-1222.2-297.61v13.09c0,0.84,0.68,1.52,1.52,1.52h2.93c0.84,0,1.52-0.68,1.52-1.52v-25.51
				c0-0.84-0.68-1.52-1.52-1.52h-29.19c-0.84,0-1.52,0.68-1.52,1.52v2.63c0,0.84,0.68,1.52,1.52,1.52h23.1
				c0.83,0,1.5,0.66,1.52,1.49L-1222.2-297.61z"/>
			<path class="st1" d="M-1210.01-310.49v9.89c0,0.84,0.68,1.52,1.52,1.52h1.63c0.84,0,1.52-0.68,1.52-1.52v-19.26
				c0-0.84-0.68-1.52-1.52-1.52h-22.15c-0.84,0-1.52,0.68-1.52,1.52v1.39c0,0.84,0.68,1.52,1.52,1.52h17.39
				c0.83,0,1.5,0.66,1.52,1.49L-1210.01-310.49z"/>
			<path class="st1" d="M-1200.56-321.1v6.32c0,0.84,0.68,1.52,1.52,1.52h0.16c0.84,0,1.52-0.68,1.52-1.52v-12.28
				c0-0.84-0.68-1.52-1.52-1.52h-14.26c-0.84,0-1.52,0.68-1.52,1.52l0,0c0,0.84,0.68,1.52,1.52,1.52h11c0.83,0,1.5,0.66,1.52,1.49
				L-1200.56-321.1z"/>
		</g>
		<path class="st1" d="M-1463.72-301.35L-1463.72-301.35c-1.91,0-3.45-1.55-3.45-3.45l0,0c0-1.91,1.55-3.45,3.45-3.45l0,0
			c1.91,0,3.45,1.55,3.45,3.45l0,0C-1460.27-302.89-1461.82-301.35-1463.72-301.35z"/>
		<path class="st1" d="M-1355.58-301.35L-1355.58-301.35c-1.91,0-3.45-1.55-3.45-3.45l0,0c0-1.91,1.55-3.45,3.45-3.45l0,0
			c1.91,0,3.45,1.55,3.45,3.45l0,0C-1352.13-302.89-1353.68-301.35-1355.58-301.35z"/>
		<path class="st3" d="M-1424.71-275.67c0,1.38,0,2.69,0,4.08c-1.47-0.09-2.89,0.44-4.25,0.89c-0.48,0.16-0.96,0.35-1.43,0.55
			c-0.17,0.07-0.31,0.06-0.47-0.03c-1.97-1.04-3.94-2.06-5.91-3.09c-0.04-0.02-0.07-0.03-0.11-0.05c-0.33,0.33-0.63,0.38-0.88,0.13
			c-0.21-0.21-0.22-0.56-0.02-0.77c0.25-0.26,0.55-0.23,0.9,0.1c0.57-0.3,1.15-0.6,1.73-0.9c1.43-0.75,2.85-1.51,4.28-2.25
			c0.11-0.05,0.27-0.04,0.4-0.01c1.29,0.38,2.58,0.79,3.87,1.17c0.29,0.09,0.61,0.12,0.92,0.15
			C-1425.39-275.68-1425.02-275.67-1424.71-275.67z M-1436.84-273.39c1.49,0,2.98,0,4.45,0c0.3,0.9,0.86,1.29,1.64,1.17
			c0.66-0.1,1.14-0.68,1.14-1.37c0-0.69-0.48-1.26-1.14-1.37c-0.78-0.12-1.34,0.27-1.64,1.17c-1.48,0-2.96,0-4.45,0
			C-1436.84-273.65-1436.84-273.53-1436.84-273.39z"/>
		<path class="st3" d="M-1319.11-273.2c-1.1,0.91-2.17,1.63-3.28,2.55c-0.91-1.24-2.34-1.99-3.6-2.78
			c-0.45-0.28-0.92-0.53-1.39-0.78c-0.17-0.09-0.25-0.21-0.29-0.4c-0.48-2.26-0.96-4.52-1.45-6.78c-0.01-0.04-0.02-0.08-0.03-0.12
			c-0.48-0.04-0.72-0.25-0.69-0.61c0.02-0.31,0.3-0.55,0.61-0.53c0.37,0.03,0.55,0.29,0.51,0.78c0.62,0.26,1.24,0.52,1.87,0.78
			c1.55,0.64,3.09,1.28,4.64,1.94c0.11,0.05,0.22,0.19,0.27,0.31c0.55,1.29,1.08,2.58,1.63,3.87c0.13,0.29,0.3,0.57,0.49,0.83
			C-1319.65-273.88-1319.32-273.46-1319.11-273.2z M-1329.06-281.52c0.99,1.19,1.97,2.38,2.95,3.56c-0.52,0.84-0.46,1.55,0.15,2.09
			c0.52,0.46,1.3,0.46,1.85,0c0.55-0.45,0.69-1.22,0.34-1.82c-0.42-0.71-1.1-0.89-2.02-0.54c-0.98-1.18-1.96-2.37-2.95-3.56
			C-1328.86-281.69-1328.95-281.62-1329.06-281.52z"/>
	</g>
</g>
<g id="Main_Logo">
	<path class="st0" d="M45.59,53.14v20.32c0,1.3,1.06,2.36,2.36,2.36h4.55c1.3,0,2.36-1.06,2.36-2.36V33.87
		c0-1.3-1.06-2.36-2.36-2.36H7.19c-1.3,0-2.36,1.06-2.36,2.36v4.08c0,1.3,1.06,2.36,2.36,2.36h35.85c1.29,0,2.34,1.03,2.36,2.32
		L45.59,53.14z"/>
	<path class="st0" d="M64.52,33.15v15.36c0,1.3,1.06,2.36,2.36,2.36h2.53c1.3,0,2.36-1.06,2.36-2.36V18.6c0-1.3-1.06-2.36-2.36-2.36
		H35.02c-1.3,0-2.36,1.06-2.36,2.36v2.15c0,1.3,1.06,2.36,2.36,2.36h26.99c1.29,0,2.34,1.03,2.36,2.32L64.52,33.15z"/>
	<path class="st0" d="M79.19,16.69v9.81c0,1.3,1.06,2.36,2.36,2.36h0.26c1.3,0,2.36-1.06,2.36-2.36V7.44c0-1.3-1.06-2.36-2.36-2.36
		H59.68c-1.3,0-2.36,1.06-2.36,2.36v0c0,1.3,1.06,2.36,2.36,2.36h17.07c1.29,0,2.34,1.03,2.36,2.32L79.19,16.69z"/>
	<g>
		<path class="st2" d="M162.59-109.91v-57.06c0-2.55,2.07-4.62,4.62-4.62h8.97c9.81,0,16.93,0.79,21.35,2.36
			c6.36,2.23,11.33,6.09,14.91,11.59c3.58,5.5,5.37,12.05,5.37,19.66c0,6.57-1.42,12.35-4.26,17.34
			c-2.84,4.99-6.52,8.68-11.06,11.06c-4.53,2.38-10.89,3.57-19.06,3.57h-16.97C164.33-106.01,162.59-107.76,162.59-109.91z
			 M168.87-112.21h7.58c9.06,0,15.35-0.56,18.86-1.69c4.93-1.6,8.81-4.49,11.64-8.66c2.82-4.17,4.24-9.27,4.24-15.3
			c0-6.32-1.53-11.73-4.59-16.21c-3.06-4.48-7.33-7.56-12.79-9.22c-4.1-1.25-10.86-1.87-20.28-1.87h0c-2.56,0-4.64,2.08-4.64,4.64
			V-112.21z"/>
		<path class="st2" d="M235.44-171.59h29.31c1.88,0,3.41,1.53,3.41,3.41v2.16c0,0.47-0.38,0.85-0.85,0.85h-29.32
			c-0.47,0-0.85,0.38-0.85,0.85v18.85c0,0.47,0.38,0.85,0.85,0.85h26.48c1.89,0,3.43,1.53,3.43,3.43v1.76
			c0,0.68-0.55,1.24-1.24,1.24h-28.67c-0.47,0-0.85,0.38-0.85,0.85v24.06c0,0.47,0.38,0.85,0.85,0.85h28.21c0.94,0,1.7,0.76,1.7,1.7
			v3.87c0,0.47-0.38,0.85-0.85,0.85h-31.76c-2.6,0-4.7-2.11-4.7-4.7v-56.01C230.57-169.41,232.75-171.59,235.44-171.59z"/>
		<path class="st2" d="M275.48-119.89L275.48-119.89c1.51-0.9,3.45-0.44,4.41,1.03c3.54,5.41,7.53,8.12,11.99,8.12
			c2.2,0,4.26-0.51,6.2-1.54c1.93-1.03,3.4-2.4,4.41-4.12c1.01-1.72,1.52-3.55,1.52-5.48c0-2.2-0.74-4.35-2.23-6.46
			c-2.05-2.91-5.8-6.42-11.23-10.52c-5.47-4.13-8.87-7.12-10.21-8.96c-2.32-3.09-3.48-6.43-3.48-10.03c0-2.85,0.68-5.45,2.05-7.8
			c1.37-2.35,3.29-4.2,5.77-5.55c2.48-1.35,5.18-2.03,8.09-2.03c3.09,0,5.98,0.77,8.67,2.3c2.06,1.17,4.21,3.1,6.45,5.78
			c1.19,1.42,0.93,3.55-0.55,4.67l-0.19,0.15c-1.37,1.04-3.32,0.84-4.43-0.47c-1.66-1.95-3.13-3.31-4.4-4.07
			c-1.74-1.04-3.63-1.56-5.68-1.56c-2.65,0-4.81,0.8-6.49,2.41c-1.68,1.6-2.52,3.58-2.52,5.93c0,1.43,0.3,2.81,0.89,4.15
			c0.59,1.34,1.68,2.79,3.25,4.37c0.86,0.83,3.68,3.02,8.47,6.55c5.68,4.19,9.57,7.92,11.68,11.19c2.11,3.27,3.17,6.55,3.17,9.85
			c0,4.76-1.81,8.89-5.42,12.39c-3.61,3.51-8,5.26-13.17,5.26c-3.98,0-7.59-1.06-10.83-3.19c-2.58-1.69-5-4.3-7.26-7.81
			C273.41-116.9,273.91-118.95,275.48-119.89z"/>
		<path class="st2" d="M327.29-171.59L327.29-171.59c1.81,0,3.28,1.47,3.28,3.28v59.02c0,1.81-1.47,3.28-3.28,3.28l0,0
			c-1.81,0-3.28-1.47-3.28-3.28v-59.02C324.01-170.12,325.48-171.59,327.29-171.59z"/>
		<path class="st2" d="M406.36-158.21l-0.44,0.42c-1.17,1.11-3,1.17-4.23,0.11c-3.08-2.66-6.39-4.75-9.93-6.26
			c-4.35-1.86-8.6-2.79-12.73-2.79c-5.14,0-10.04,1.26-14.69,3.79c-4.65,2.53-8.26,5.95-10.81,10.28
			c-2.56,4.32-3.83,8.89-3.83,13.71c0,4.93,1.32,9.62,3.97,14.07c2.64,4.44,6.3,7.94,10.97,10.48c4.67,2.54,9.78,3.81,15.34,3.81
			c6.75,0,12.45-1.9,17.12-5.71c3.57-2.91,6.03-6.48,7.37-10.71c0.64-2.03-0.91-4.09-3.03-4.09h-13.79c-1.75,0-3.17-1.42-3.17-3.17
			v0c0-1.75,1.42-3.17,3.17-3.17h21.8c1.85,0,3.3,1.58,3.16,3.43c-0.66,8.54-3.62,15.44-8.89,20.71
			c-5.96,5.96-13.93,8.94-23.92,8.94c-12.13,0-21.73-4.13-28.8-12.39c-5.44-6.36-8.16-13.72-8.16-22.07
			c0-6.21,1.56-11.99,4.68-17.34c3.12-5.35,7.4-9.53,12.84-12.55c5.44-3.02,11.59-4.52,18.46-4.52c5.56,0,10.79,1,15.69,3.01
			c3.98,1.63,7.88,4.06,11.71,7.28C407.65-161.73,407.73-159.52,406.36-158.21z"/>
		<path class="st2" d="M425.26-107.04v-63.57c0-0.54,0.44-0.98,0.98-0.98h0c0.28,0,0.55,0.12,0.74,0.34l41.55,47.86
			c0.62,0.72,1.8,0.28,1.8-0.67v-46.5c0-0.57,0.46-1.03,1.03-1.03h4.41c0.57,0,1.03,0.46,1.03,1.03v63.53
			c0,0.57-0.46,1.03-1.03,1.03l0,0c-0.28,0-0.55-0.12-0.74-0.34l-41.2-47.26c-0.62-0.71-1.8-0.27-1.8,0.67v45.89
			c0,0.57-0.46,1.03-1.03,1.03h-4.73C425.72-106.01,425.26-106.47,425.26-107.04z"/>
		<path class="st2" d="M495.09-171.59L495.09-171.59c1.81,0,3.28,1.47,3.28,3.28v59.02c0,1.81-1.47,3.28-3.28,3.28l0,0
			c-1.81,0-3.28-1.47-3.28-3.28v-59.02C491.82-170.12,493.28-171.59,495.09-171.59z"/>
		<path class="st2" d="M570.07-110.96l4,5.05c1.62,2.05,0.16,5.07-2.45,5.07h-0.09c-0.96,0-1.86-0.44-2.46-1.19l-4.08-5.18
			c-0.94-1.19-2.58-1.51-3.93-0.82c-4.77,2.45-10.05,3.67-15.82,3.67c-9.71,0-17.9-3.33-24.58-9.99
			c-6.68-6.66-10.02-14.71-10.02-24.16c0-6.3,1.53-12.15,4.59-17.54c3.06-5.39,7.22-9.61,12.5-12.64
			c5.27-3.03,11.06-4.55,17.35-4.55c9.71,0,17.9,3.32,24.57,9.96c6.67,6.64,10,14.81,10,24.5c0,5.05-0.91,9.67-2.74,13.86
			c-1.52,3.49-3.75,6.79-6.68,9.91C569.17-113.89,569.12-112.16,570.07-110.96z M562.01-121.16c1.26,1.59,3.66,1.58,4.92-0.01
			c3.96-4.99,5.94-10.88,5.94-17.67c0-5.21-1.21-9.92-3.63-14.13c-2.42-4.21-5.83-7.58-10.23-10.11c-4.4-2.53-9.04-3.79-13.91-3.79
			c-4.9,0-9.53,1.26-13.86,3.77c-4.34,2.51-7.73,5.92-10.16,10.22c-2.44,4.3-3.66,9.08-3.66,14.34c0,7.79,2.69,14.37,8.07,19.74
			c5.38,5.37,11.87,8.05,19.48,8.05c3.75,0,7.28-0.66,10.57-1.98c1.95-0.78,2.61-3.2,1.31-4.85l-11.52-14.26l7.02-1.71
			L562.01-121.16z"/>
		<path class="st2" d="M596.42-171.59L596.42-171.59c1.81,0,3.28,1.47,3.28,3.28V-132c0,4.7,0.09,7.62,0.27,8.78
			c0.33,2.59,1.08,4.75,2.27,6.49c1.19,1.74,3.02,3.19,5.48,4.37c2.47,1.17,4.95,1.76,7.45,1.76c2.17,0,4.25-0.46,6.24-1.38
			c1.99-0.92,3.66-2.2,4.99-3.83c1.34-1.63,2.32-3.61,2.94-5.93c0.45-1.66,0.67-5.08,0.67-10.25v-36.31c0-1.81,1.47-3.28,3.28-3.28
			l0,0c1.81,0,3.28,1.47,3.28,3.28V-132c0,5.86-0.57,10.59-1.72,14.2c-1.14,3.61-3.43,6.75-6.87,9.43
			c-3.43,2.67-7.59,4.01-12.46,4.01c-5.29,0-9.82-1.26-13.6-3.79c-3.77-2.53-6.3-5.87-7.58-10.03c-0.8-2.56-1.2-7.16-1.2-13.82
			v-36.31C593.15-170.12,594.61-171.59,596.42-171.59z"/>
		<path class="st2" d="M655.96-171.59h31.16c1.77,0,3.21,1.44,3.21,3.21l0,0c0,1.77-1.44,3.21-3.21,3.21h-24.61
			c-1.77,0-3.21,1.44-3.21,3.21v14.13c0,1.77,1.44,3.21,3.21,3.21h24.34c1.77,0,3.21,1.44,3.21,3.21v0c0,1.77-1.44,3.21-3.21,3.21
			h-24.34c-1.77,0-3.21,1.44-3.21,3.21v19.35c0,1.77,1.44,3.21,3.21,3.21h24.34c1.77,0,3.21,1.44,3.21,3.21v0
			c0,1.77-1.44,3.21-3.21,3.21h-30.89c-1.77,0-3.21-1.44-3.21-3.21v-59.16C652.75-170.15,654.19-171.59,655.96-171.59z"/>
		<path class="st0" d="M329.66-177.29h-3.81c-1.91,0-3.45-1.55-3.45-3.45v-3.81c0-1.91,1.55-3.45,3.45-3.45h3.81
			c1.91,0,3.45,1.55,3.45,3.45v3.81C333.11-178.84,331.57-177.29,329.66-177.29z"/>
		<path class="st0" d="M497.51-177.29h-3.81c-1.91,0-3.45-1.55-3.45-3.45v-3.81c0-1.91,1.55-3.45,3.45-3.45h3.81
			c1.91,0,3.45,1.55,3.45,3.45v3.81C500.97-178.84,499.42-177.29,497.51-177.29z"/>
		<path class="st2" d="M388.01-137.42c0,2.1,0,4.19,0,6.3c-2.24-0.14-4.3,0.61-6.36,1.3c-0.74,0.25-1.46,0.54-2.18,0.83
			c-0.26,0.11-0.47,0.09-0.72-0.05c-2.99-1.57-6-3.14-9-4.7c-0.05-0.03-0.11-0.05-0.17-0.07c-0.5,0.51-0.95,0.57-1.34,0.2
			c-0.33-0.31-0.34-0.86-0.03-1.18c0.38-0.39,0.84-0.35,1.36,0.15c0.87-0.45,1.75-0.91,2.63-1.37c2.17-1.14,4.34-2.29,6.51-3.42
			c0.16-0.08,0.42-0.07,0.6-0.01c1.97,0.58,3.92,1.2,5.89,1.78c0.45,0.13,0.93,0.19,1.39,0.23
			C387.07-137.39,387.53-137.42,388.01-137.42z M369.65-133.91c2.27,0,4.53,0,6.78,0c0.46,1.37,1.31,1.97,2.5,1.78
			c1-0.16,1.73-1.04,1.73-2.08c0-1.04-0.73-1.92-1.73-2.08c-1.19-0.19-2.03,0.4-2.5,1.78c-2.25,0-4.51,0-6.77,0
			C369.65-134.29,369.65-134.12,369.65-133.91z"/>
		<path class="st2" d="M552.34-133.53c-1.73,1.44-3.41,2.56-5.15,4c-1.42-1.94-3.67-3.13-5.66-4.36c-0.71-0.44-1.44-0.84-2.18-1.23
			c-0.27-0.14-0.39-0.33-0.45-0.62c-0.75-3.55-1.51-7.1-2.27-10.65c-0.01-0.06-0.04-0.13-0.05-0.19c-0.76-0.07-1.13-0.39-1.08-0.96
			c0.04-0.48,0.48-0.87,0.95-0.83c0.58,0.05,0.86,0.46,0.81,1.23c0.97,0.41,1.95,0.82,2.93,1.23c2.43,1.01,4.86,2.01,7.28,3.04
			c0.18,0.08,0.34,0.3,0.42,0.49c0.86,2.02,1.7,4.06,2.56,6.08c0.2,0.46,0.48,0.89,0.77,1.31
			C551.5-134.6,552.01-133.93,552.34-133.53z M536.7-146.6c1.55,1.87,3.1,3.74,4.64,5.6c-0.82,1.32-0.73,2.43,0.24,3.28
			c0.82,0.72,2.04,0.72,2.9,0.01c0.86-0.71,1.09-1.92,0.53-2.85c-0.65-1.11-1.72-1.4-3.18-0.85c-1.54-1.86-3.09-3.72-4.64-5.6
			C537.02-146.87,536.88-146.75,536.7-146.6z"/>
	</g>
</g>
<g id="Color_pallete">
	<g>
		<rect x="-1660.46" y="-809.48" class="st2" width="200" height="200"/>
		<rect x="-1460.46" y="-809.48" class="st0" width="200" height="200"/>
		<rect x="-1260.46" y="-809.48" width="200" height="200"/>
	</g>
</g>
<g id="Icons">
	<rect x="-2885.52" y="-698.73" class="st0" width="1000" height="1000"/>
	<g id="icon_1">
		<g>
			<path class="st0" d="M-1504.55,637.55l0.16,19.21c0.02,2.55,2.11,4.61,4.66,4.58l0.5,0c2.55-0.02,4.61-2.11,4.58-4.66
				l-0.32-37.33c-0.02-2.55-2.11-4.61-4.66-4.58l-43.35,0.37c-2.55,0.02-4.61,2.11-4.58,4.66v0c0.02,2.55,2.11,4.61,4.66,4.58
				l33.44-0.29c2.52-0.02,4.59,1.98,4.66,4.5L-1504.55,637.55z"/>
			<path class="st0" d="M-1489.31,616.77l0.1,11.4c0.01,1.52,1.25,2.73,2.77,2.72l0.3,0c1.52-0.01,2.73-1.25,2.72-2.77l-0.19-22.15
				c-0.01-1.52-1.25-2.73-2.77-2.72l-25.72,0.22c-1.51,0.01-2.73,1.25-2.72,2.77v0c0.01,1.51,1.25,2.73,2.77,2.72l19.84-0.17
				c1.5-0.01,2.73,1.17,2.77,2.67L-1489.31,616.77z"/>
			<path class="st0" d="M-1480.46,604.6l0.06,7.25c0.01,0.96,0.8,1.74,1.76,1.73l0.19,0c0.96-0.01,1.74-0.8,1.73-1.76l-0.12-14.1
				c-0.01-0.96-0.8-1.74-1.76-1.73l-16.37,0.14c-0.96,0.01-1.74,0.8-1.73,1.76l0,0c0.01,0.96,0.8,1.74,1.76,1.73l12.63-0.11
				c0.95-0.01,1.73,0.75,1.76,1.7L-1480.46,604.6z"/>
		</g>
		<path class="st1" d="M-1575.97,703.74V634.3c0-3.11,2.52-5.63,5.63-5.63h10.92c11.94,0,20.6,0.96,25.99,2.88
			c7.74,2.71,13.79,7.41,18.15,14.11c4.36,6.69,6.54,14.67,6.54,23.93c0,7.99-1.73,15.03-5.18,21.11
			c-3.45,6.08-7.94,10.56-13.46,13.45c-5.52,2.89-13.25,4.34-23.19,4.34h-20.65C-1573.84,708.48-1575.97,706.36-1575.97,703.74z
			 M-1568.32,700.94h9.22c11.03,0,18.68-0.69,22.95-2.06c6-1.95,10.72-5.46,14.16-10.54c3.44-5.08,5.15-11.29,5.15-18.62
			c0-7.7-1.86-14.27-5.59-19.73c-3.73-5.46-8.92-9.2-15.57-11.22c-4.99-1.52-13.22-2.28-24.69-2.28l0,0c-3.12,0-5.64,2.53-5.64,5.64
			V700.94z"/>
	</g>
	<g id="icon_2">
		<g>
			<path class="st1" d="M-2286.35-265.56l0.75,87.42c0.1,11.62,9.6,20.96,21.22,20.86l2.27-0.02c11.62-0.1,20.96-9.6,20.86-21.22
				l-1.46-169.87c-0.1-11.62-9.6-20.96-21.22-20.86l-197.25,1.69c-11.62,0.1-20.96,9.6-20.86,21.22v0
				c0.1,11.62,9.6,20.96,21.22,20.86l152.15-1.3c11.47-0.1,20.9,9,21.21,20.47L-2286.35-265.56z"/>
			<path class="st1" d="M-2217-360.11l0.44,51.87c0.06,6.89,5.7,12.43,12.59,12.38l1.35-0.01c6.89-0.06,12.43-5.7,12.38-12.59
				l-0.86-100.79c-0.06-6.89-5.7-12.43-12.59-12.38l-117.04,1c-6.89,0.06-12.43,5.7-12.38,12.59v0c0.06,6.89,5.7,12.43,12.59,12.38
				l90.28-0.77c6.8-0.06,12.4,5.34,12.58,12.14L-2217-360.11z"/>
			<path class="st1" d="M-2176.73-415.5l0.28,33.01c0.04,4.39,3.62,7.91,8.01,7.88l0.86-0.01c4.39-0.04,7.91-3.62,7.88-8.01
				l-0.55-64.14c-0.04-4.39-3.62-7.91-8.01-7.88l-74.48,0.64c-4.39,0.04-7.91,3.62-7.88,8.01l0,0c0.04,4.39,3.62,7.91,8.01,7.88
				l57.45-0.49c4.33-0.04,7.89,3.4,8.01,7.73L-2176.73-415.5z"/>
		</g>
		<path class="st3" d="M-2611.34,35.61v-315.97c0-14.14,11.47-25.61,25.61-25.61h49.69c54.31,0,93.73,4.36,118.26,13.08
			c35.22,12.34,62.75,33.74,82.58,64.19c19.83,30.45,29.75,66.74,29.75,108.87c0,36.38-7.86,68.39-23.58,96.04
			c-15.72,27.65-36.13,48.06-61.23,61.22c-25.1,13.17-60.28,19.75-105.54,19.75h-93.96C-2601.67,57.19-2611.34,47.53-2611.34,35.61z
			 M-2576.53,22.88h41.97c50.2,0,85.01-3.12,104.43-9.37c27.32-8.88,48.8-24.87,64.44-47.97c15.64-23.11,23.45-51.35,23.45-84.73
			c0-35.03-8.48-64.96-25.43-89.79c-16.95-24.83-40.57-41.85-70.85-51.06c-22.71-6.91-60.16-10.36-112.33-10.36l0,0
			c-14.18,0-25.68,11.5-25.68,25.68V22.88z"/>
	</g>
	<g id="icon_3">
		<g>
			<path class="st0" d="M-954.01,636.37l0.17,20.12c0.02,2.67,2.21,4.82,4.88,4.8l0.52,0c2.67-0.02,4.82-2.21,4.8-4.88l-0.34-39.1
				c-0.02-2.67-2.21-4.82-4.88-4.8l-45.41,0.39c-2.67,0.02-4.82,2.21-4.8,4.88l0,0c0.02,2.67,2.21,4.82,4.88,4.8l35.03-0.3
				c2.64-0.02,4.81,2.07,4.88,4.71L-954.01,636.37z"/>
			<path class="st0" d="M-938.04,614.6l0.1,11.94c0.01,1.59,1.31,2.86,2.9,2.85l0.31,0c1.59-0.01,2.86-1.31,2.85-2.9l-0.2-23.2
				c-0.01-1.59-1.31-2.86-2.9-2.85l-26.94,0.23c-1.59,0.01-2.86,1.31-2.85,2.9l0,0c0.01,1.59,1.31,2.86,2.9,2.85l20.78-0.18
				c1.57-0.01,2.85,1.23,2.9,2.8L-938.04,614.6z"/>
			<path class="st0" d="M-928.77,601.85l0.07,7.6c0.01,1.01,0.83,1.82,1.84,1.81l0.2,0c1.01-0.01,1.82-0.83,1.81-1.84l-0.13-14.77
				c-0.01-1.01-0.83-1.82-1.84-1.81l-17.15,0.15c-1.01,0.01-1.82,0.83-1.81,1.84v0c0.01,1.01,0.83,1.82,1.84,1.81l13.23-0.11
				c1-0.01,1.82,0.78,1.84,1.78L-928.77,601.85z"/>
		</g>
		<path class="st2" d="M-1028.82,705.7v-72.74c0-3.26,2.64-5.9,5.9-5.9h11.44c12.5,0,21.58,1,27.22,3.01
			c8.11,2.84,14.44,7.77,19.01,14.78c4.57,7.01,6.85,15.36,6.85,25.06c0,8.37-1.81,15.74-5.43,22.11
			c-3.62,6.37-8.32,11.06-14.09,14.09c-5.78,3.03-13.88,4.55-24.3,4.55h-21.63C-1026.6,710.67-1028.82,708.44-1028.82,705.7z
			 M-1020.81,702.77h9.66c11.56,0,19.57-0.72,24.04-2.16c6.29-2.04,11.23-5.72,14.83-11.04c3.6-5.32,5.4-11.82,5.4-19.51
			c0-8.06-1.95-14.95-5.85-20.67c-3.9-5.72-9.34-9.63-16.31-11.75c-5.23-1.59-13.85-2.39-25.86-2.39h0c-3.26,0-5.91,2.65-5.91,5.91
			V702.77z"/>
	</g>
	<g id="icon_4">
		<g>
			<path class="st1" d="M-683.06,637.07l0.16,19.21c0.02,2.55,2.11,4.61,4.66,4.58l0.5,0c2.55-0.02,4.61-2.11,4.58-4.66l-0.32-37.33
				c-0.02-2.55-2.11-4.61-4.66-4.58l-43.35,0.37c-2.55,0.02-4.61,2.11-4.58,4.66v0c0.02,2.55,2.11,4.61,4.66,4.58l33.44-0.29
				c2.52-0.02,4.59,1.98,4.66,4.5L-683.06,637.07z"/>
			<path class="st1" d="M-667.82,616.29l0.1,11.4c0.01,1.52,1.25,2.73,2.77,2.72l0.3,0c1.51-0.01,2.73-1.25,2.72-2.77l-0.19-22.15
				c-0.01-1.52-1.25-2.73-2.77-2.72l-25.72,0.22c-1.52,0.01-2.73,1.25-2.72,2.77v0c0.01,1.51,1.25,2.73,2.77,2.72l19.84-0.17
				c1.5-0.01,2.73,1.17,2.77,2.67L-667.82,616.29z"/>
			<path class="st1" d="M-658.97,604.11l0.06,7.25c0.01,0.96,0.8,1.74,1.76,1.73l0.19,0c0.96-0.01,1.74-0.8,1.73-1.76l-0.12-14.1
				c-0.01-0.96-0.8-1.74-1.76-1.73l-16.37,0.14c-0.96,0.01-1.74,0.8-1.73,1.76l0,0c0.01,0.96,0.8,1.74,1.76,1.73l12.63-0.11
				c0.95-0.01,1.73,0.75,1.76,1.7L-658.97,604.11z"/>
		</g>
		<path class="st0" d="M-754.48,703.25v-69.44c0-3.11,2.52-5.63,5.63-5.63h10.92c11.94,0,20.6,0.96,25.99,2.88
			c7.74,2.71,13.79,7.41,18.15,14.11c4.36,6.69,6.54,14.67,6.54,23.93c0,7.99-1.73,15.03-5.18,21.11
			c-3.45,6.08-7.94,10.56-13.46,13.45c-5.52,2.89-13.25,4.34-23.19,4.34h-20.65C-752.36,707.99-754.48,705.87-754.48,703.25z
			 M-746.83,700.45h9.22c11.03,0,18.68-0.69,22.95-2.06c6-1.95,10.72-5.46,14.16-10.54c3.44-5.08,5.15-11.29,5.15-18.62
			c0-7.7-1.86-14.27-5.59-19.73c-3.73-5.46-8.92-9.2-15.57-11.22c-4.99-1.52-13.22-2.28-24.69-2.28l0,0c-3.12,0-5.64,2.53-5.64,5.64
			V700.45z"/>
	</g>
</g>
</svg>
