<svg xmlns="http://www.w3.org/2000/svg" viewBox="0 0 1055 216.45"><defs><style>.cls-1{fill:#035e6e;}.cls-2{fill:#ffcf68;}</style></defs><title>Main logo</title><g id="Layer_20" data-name="Layer 20"><path class="cls-1" d="M218.33,193.24h0a6,6,0,0,1,8,1.88q9.67,14.81,21.85,14.81a23.73,23.73,0,0,0,11.3-2.8,19.94,19.94,0,0,0,8.05-7.52,19.48,19.48,0,0,0,2.76-10,20.35,20.35,0,0,0-4.06-11.79q-5.61-8-20.49-19.18T227.17,142.3A29.84,29.84,0,0,1,220.83,124a27.67,27.67,0,0,1,3.74-14.22,26.7,26.7,0,0,1,10.52-10.12A30.42,30.42,0,0,1,249.85,96a31.49,31.49,0,0,1,15.81,4.19q5.63,3.21,11.76,10.53a5.94,5.94,0,0,1-1,8.51l-.36.26a5.91,5.91,0,0,1-8.08-.86,35.46,35.46,0,0,0-8-7.43,19.9,19.9,0,0,0-10.37-2.84,16.38,16.38,0,0,0-11.82,4.39,14.33,14.33,0,0,0-4.6,10.81,18.34,18.34,0,0,0,1.63,7.56,27.91,27.91,0,0,0,5.93,8q2.35,2.28,15.45,11.95,15.53,11.46,21.29,20.4t5.77,18q0,13-9.87,22.59a33.18,33.18,0,0,1-24,9.59,35.17,35.17,0,0,1-19.75-5.81q-7.06-4.63-13.25-14.24A5.93,5.93,0,0,1,218.33,193.24Z" transform="translate(-12.5 -11.53)"/></g><g id="Layer_21" data-name="Layer 21"><path class="cls-1" d="M145.32,99h53.44A6.22,6.22,0,0,1,205,105.2v3.93a1.55,1.55,0,0,1-1.56,1.55H150a1.56,1.56,0,0,0-1.56,1.56V146.6a1.56,1.56,0,0,0,1.56,1.56h48.28a6.24,6.24,0,0,1,6.25,6.24v3.21a2.25,2.25,0,0,1-2.25,2.25H150a1.56,1.56,0,0,0-1.56,1.55v43.88a1.55,1.55,0,0,0,1.56,1.55h51.43a3.1,3.1,0,0,1,3.1,3.1V217a1.56,1.56,0,0,1-1.55,1.56H145a8.58,8.58,0,0,1-8.57-8.58V107.85A8.87,8.87,0,0,1,145.32,99Z" transform="translate(-12.5 -11.53)"/></g><g id="Layer_22" data-name="Layer 22"><path class="cls-1" d="M12.5,211.44v-104A8.42,8.42,0,0,1,20.93,99H37.29q26.82,0,38.94,4.31a52,52,0,0,1,27.18,21.13q9.8,15,9.8,35.85,0,18-7.76,31.62T85.29,212q-12.41,6.51-34.75,6.51H19.61A7.11,7.11,0,0,1,12.5,211.44ZM24,207.25H37.78q24.8,0,34.38-3.09a39.66,39.66,0,0,0,21.22-15.79q7.71-11.42,7.72-27.9,0-17.29-8.37-29.56A42.16,42.16,0,0,0,69.4,114.1q-11.22-3.42-37-3.42h0A8.46,8.46,0,0,0,24,119.14Z" transform="translate(-12.5 -11.53)"/></g><g id="Layer_1_copy" data-name="Layer 1 copy"><path class="cls-1" d="M145.32,99h53.44A6.22,6.22,0,0,1,205,105.2v3.93a1.55,1.55,0,0,1-1.56,1.55H150a1.56,1.56,0,0,0-1.56,1.56V146.6a1.56,1.56,0,0,0,1.56,1.56h48.28a6.24,6.24,0,0,1,6.25,6.24v3.21a2.25,2.25,0,0,1-2.25,2.25H150a1.56,1.56,0,0,0-1.56,1.55v43.88a1.55,1.55,0,0,0,1.56,1.55h51.43a3.1,3.1,0,0,1,3.1,3.1V217a1.56,1.56,0,0,1-1.55,1.56H145a8.58,8.58,0,0,1-8.57-8.58V107.85A8.87,8.87,0,0,1,145.32,99Z" transform="translate(-12.5 -11.53)"/></g><g id="Layer_5" data-name="Layer 5"><rect class="cls-2" x="291.38" y="57.52" width="19.53" height="19.53" rx="3.45"/></g><g id="Layer_9" data-name="Layer 9"><path class="cls-1" d="M912.06,99h56.81a5.85,5.85,0,0,1,5.86,5.85h0a5.85,5.85,0,0,1-5.86,5.85H924a5.86,5.86,0,0,0-5.86,5.86V142.3a5.86,5.86,0,0,0,5.86,5.86h44.38a5.85,5.85,0,0,1,5.85,5.85h0a5.85,5.85,0,0,1-5.85,5.85H924a5.85,5.85,0,0,0-5.86,5.85V201a5.85,5.85,0,0,0,5.86,5.85h44.38a5.85,5.85,0,0,1,5.85,5.85h0a5.85,5.85,0,0,1-5.85,5.86H912.06a5.85,5.85,0,0,1-5.85-5.86V104.83A5.85,5.85,0,0,1,912.06,99Z" transform="translate(-12.5 -11.53)"/></g><g id="Layer_10" data-name="Layer 10"><path class="cls-1" d="M803.5,99h0a6,6,0,0,1,6,6v66.21q0,12.84.49,16A26.43,26.43,0,0,0,814.11,199a24.44,24.44,0,0,0,10,8,31.33,31.33,0,0,0,13.57,3.21,26.78,26.78,0,0,0,11.38-2.52,25.25,25.25,0,0,0,9.11-7,28.43,28.43,0,0,0,5.36-10.81q1.22-4.54,1.22-18.69V105a6,6,0,0,1,6-6h0a6,6,0,0,1,6,6v66.21q0,16-3.13,25.89t-12.52,17.19q-9.39,7.31-22.72,7.31-14.46,0-24.79-6.91a33.27,33.27,0,0,1-13.82-18.28q-2.19-7-2.19-25.2V105A6,6,0,0,1,803.5,99Z" transform="translate(-12.5 -11.53)"/></g><g id="Layer_11" data-name="Layer 11"><path class="cls-1" d="M755.46,209.53l7.29,9.21a5.7,5.7,0,0,1-4.47,9.23h-.17a5.7,5.7,0,0,1-4.48-2.17l-7.44-9.45a5.75,5.75,0,0,0-7.17-1.49,62.31,62.31,0,0,1-28.85,6.69q-26.55,0-44.82-18.2a59.92,59.92,0,0,1-18.27-44.06,63.68,63.68,0,0,1,8.36-32,60.43,60.43,0,0,1,22.79-23A62.4,62.4,0,0,1,709.87,96q26.55,0,44.8,18.17T772.9,158.8a62.58,62.58,0,0,1-5,25.28,63.38,63.38,0,0,1-12.18,18.07A5.67,5.67,0,0,0,755.46,209.53Zm-14.71-18.6a5.72,5.72,0,0,0,9,0q10.83-13.66,10.83-32.22a50.69,50.69,0,0,0-6.63-25.76,49.56,49.56,0,0,0-18.65-18.43,50,50,0,0,0-50.64,0A49.25,49.25,0,0,0,666.1,133.1a52,52,0,0,0-6.67,26.15q0,21.32,14.71,36a48.45,48.45,0,0,0,35.52,14.68,51.39,51.39,0,0,0,19.27-3.6,5.73,5.73,0,0,0,2.4-8.85l-21-26,12.81-3.12Z" transform="translate(-12.5 -11.53)"/></g><g id="Layer_23" data-name="Layer 23"><path class="cls-1" d="M218.33,193.24h0a6,6,0,0,1,8,1.88q9.67,14.81,21.85,14.81a23.73,23.73,0,0,0,11.3-2.8,19.94,19.94,0,0,0,8.05-7.52,19.48,19.48,0,0,0,2.76-10,20.35,20.35,0,0,0-4.06-11.79q-5.61-8-20.49-19.18T227.17,142.3A29.84,29.84,0,0,1,220.83,124a27.67,27.67,0,0,1,3.74-14.22,26.7,26.7,0,0,1,10.52-10.12A30.42,30.42,0,0,1,249.85,96a31.49,31.49,0,0,1,15.81,4.19q5.63,3.21,11.76,10.53a5.94,5.94,0,0,1-1,8.51l-.36.26a5.91,5.91,0,0,1-8.08-.86,35.46,35.46,0,0,0-8-7.43,19.9,19.9,0,0,0-10.37-2.84,16.38,16.38,0,0,0-11.82,4.39,14.33,14.33,0,0,0-4.6,10.81,18.34,18.34,0,0,0,1.63,7.56,27.91,27.91,0,0,0,5.93,8q2.35,2.28,15.45,11.95,15.53,11.46,21.29,20.4t5.77,18q0,13-9.87,22.59a33.18,33.18,0,0,1-24,9.59,35.17,35.17,0,0,1-19.75-5.81q-7.06-4.63-13.25-14.24A5.93,5.93,0,0,1,218.33,193.24Z" transform="translate(-12.5 -11.53)"/></g><g id="Layer_24" data-name="Layer 24"><path class="cls-1" d="M618.75,99h0a6,6,0,0,1,6,6V212.57a6,6,0,0,1-6,6h0a6,6,0,0,1-6-6V105A6,6,0,0,1,618.75,99Z" transform="translate(-12.5 -11.53)"/></g><g id="Layer_13" data-name="Layer 13"><path class="cls-1" d="M491.42,216.68V100.77A1.79,1.79,0,0,1,493.21,99h0a1.78,1.78,0,0,1,1.34.61l75.76,87.26a1.87,1.87,0,0,0,3.29-1.22V100.85A1.87,1.87,0,0,1,575.47,99h8a1.87,1.87,0,0,1,1.87,1.87V216.68a1.87,1.87,0,0,1-1.87,1.87h0a1.77,1.77,0,0,1-1.34-.62l-75.12-86.16a1.87,1.87,0,0,0-3.28,1.23v83.68a1.87,1.87,0,0,1-1.87,1.87h-8.61A1.87,1.87,0,0,1,491.42,216.68Z" transform="translate(-12.5 -11.53)"/></g><g id="Layer_14" data-name="Layer 14"><path class="cls-1" d="M457,123.37l-.81.76a5.75,5.75,0,0,1-7.71.2,68.89,68.89,0,0,0-18.11-11.41,58.82,58.82,0,0,0-23.2-5.08,55.26,55.26,0,0,0-26.78,6.91,50.09,50.09,0,0,0-19.72,18.73,48.39,48.39,0,0,0-7,25,49.29,49.29,0,0,0,7.24,25.64,51.39,51.39,0,0,0,20,19.1,57.46,57.46,0,0,0,28,6.95q18.45,0,31.21-10.4a40.68,40.68,0,0,0,13.43-19.53,5.76,5.76,0,0,0-5.53-7.46H422.82A5.77,5.77,0,0,1,417,167h0a5.78,5.78,0,0,1,5.78-5.77h39.75a5.8,5.8,0,0,1,5.76,6.26q-1.8,23.34-16.21,37.76-16.31,16.29-43.61,16.29-33.17,0-52.51-22.59a60.06,60.06,0,0,1-14.87-40.24,61.71,61.71,0,0,1,8.53-31.62,60.69,60.69,0,0,1,23.41-22.88Q388,96,406.72,96a74.79,74.79,0,0,1,28.61,5.49,80.63,80.63,0,0,1,21.35,13.27A5.8,5.8,0,0,1,457,123.37Z" transform="translate(-12.5 -11.53)"/></g><g id="Layer_15" data-name="Layer 15"><path class="cls-1" d="M312.8,99h0a6,6,0,0,1,6,6V212.57a6,6,0,0,1-6,6h0a6,6,0,0,1-6-6V105A6,6,0,0,1,312.8,99Z" transform="translate(-12.5 -11.53)"/></g><g id="Layer_6" data-name="Layer 6"><path class="cls-2" d="M1058.43,32.69V50.57a4.3,4.3,0,0,0,4.3,4.3h.47a4.3,4.3,0,0,0,4.3-4.3V15.83a4.3,4.3,0,0,0-4.3-4.3h-40.35a4.3,4.3,0,0,0-4.3,4.3h0a4.31,4.31,0,0,0,4.3,4.3H1054a4.3,4.3,0,0,1,4.3,4.22Z" transform="translate(-12.5 -11.53)"/></g><g id="Layer_7" data-name="Layer 7"><path class="cls-2" d="M1031.68,62.7v28A4.3,4.3,0,0,0,1036,95h4.6a4.31,4.31,0,0,0,4.31-4.3V36.18a4.31,4.31,0,0,0-4.31-4.3H977.91a4.31,4.31,0,0,0-4.31,4.3v3.93a4.3,4.3,0,0,0,4.31,4.3h49.21a4.31,4.31,0,0,1,4.3,4.23Z" transform="translate(-12.5 -11.53)"/></g><g id="Layer_8" data-name="Layer 8"><path class="cls-2" d="M997.17,99.16v37a4.31,4.31,0,0,0,4.3,4.31h8.3a4.31,4.31,0,0,0,4.31-4.31V64a4.3,4.3,0,0,0-4.31-4.3H927.15a4.3,4.3,0,0,0-4.31,4.3v7.43a4.31,4.31,0,0,0,4.31,4.31h65.36a4.29,4.29,0,0,1,4.3,4.22Z" transform="translate(-12.5 -11.53)"/></g><g id="Layer_4" data-name="Layer 4"><rect class="cls-2" x="597.42" y="57.52" width="19.53" height="19.53" rx="3.45"/></g><g id="Layer_2" data-name="Layer 2"><path class="cls-1" d="M723.13,168.37c-3.16,2.61-6.22,4.66-9.39,7.29-2.59-3.54-6.7-5.71-10.31-7.95-1.3-.8-2.64-1.53-4-2.25a1.49,1.49,0,0,1-.82-1.13q-2.05-9.72-4.15-19.42a3.37,3.37,0,0,0-.09-.34c-1.39-.12-2.06-.72-2-1.76a1.65,1.65,0,0,1,1.73-1.51c1.07.08,1.57.83,1.47,2.24l5.35,2.25c4.43,1.84,8.87,3.67,13.28,5.54a1.76,1.76,0,0,1,.77.9c1.57,3.68,3.09,7.4,4.68,11.08a13.83,13.83,0,0,0,1.39,2.38C721.59,166.42,722.52,167.64,723.13,168.37Zm-28.51-23.83,8.45,10.2c-1.49,2.41-1.32,4.43.44,6a4.13,4.13,0,0,0,6.26-5.19c-1.19-2-3.14-2.55-5.79-1.54l-8.46-10.2Z" transform="translate(-12.5 -11.53)"/></g><g id="Layer_3" data-name="Layer 3"><path class="cls-1" d="M423.51,161.29v11.48c-4.09-.25-7.84,1.11-11.6,2.37-1.34.45-2.66,1-4,1.52a1.42,1.42,0,0,1-1.31-.09c-5.46-2.87-10.93-5.71-16.4-8.57l-.3-.13c-.91.92-1.74,1-2.44.37a1.53,1.53,0,0,1-.05-2.14c.69-.72,1.53-.64,2.48.28l4.79-2.51c4-2.08,7.91-4.17,11.88-6.23a1.65,1.65,0,0,1,1.1,0c3.58,1.07,7.15,2.18,10.74,3.24a12.58,12.58,0,0,0,2.54.41C421.79,161.34,422.63,161.29,423.51,161.29ZM390,167.68h12.35c.85,2.51,2.4,3.59,4.56,3.25a3.86,3.86,0,0,0,0-7.59c-2.16-.34-3.71.74-4.56,3.25H390Z" transform="translate(-12.5 -11.53)"/></g></svg>